<mxfile host="app.diagrams.net" modified="2023-12-26T09:16:03.170Z" agent="Mozilla/5.0 (Windows NT 10.0; Win64; x64; rv:109.0) Gecko/20100101 Firefox/112.0" etag="rzdwS9WUGx-jHUmS8wkA" version="22.1.11" type="github">
  <diagram id="4zdO6A0pDtZ9LioLVTQo" name="Page-1">
    <mxGraphModel dx="2907" dy="3856" grid="1" gridSize="10" guides="1" tooltips="1" connect="1" arrows="1" fold="1" page="1" pageScale="1" pageWidth="827" pageHeight="1169" math="0" shadow="0">
      <root>
        <mxCell id="0" />
        <mxCell id="1" parent="0" />
        <mxCell id="s8GAoEmhAFOMZ-G4dZP0-1" value="&lt;font style=&quot;font-size: 24px;&quot;&gt;32x32&lt;/font&gt;" style="rounded=0;whiteSpace=wrap;html=1;fillColor=#ffe6cc;strokeColor=#d79b00;" parent="1" vertex="1">
          <mxGeometry x="-480" y="-1480" width="320" height="320" as="geometry" />
        </mxCell>
        <mxCell id="s8GAoEmhAFOMZ-G4dZP0-2" value="&lt;font style=&quot;font-size: 24px;&quot;&gt;16x16&lt;/font&gt;" style="rounded=0;whiteSpace=wrap;html=1;fillColor=#dae8fc;strokeColor=#6c8ebf;" parent="1" vertex="1">
          <mxGeometry x="-160" y="-1480" width="160" height="160" as="geometry" />
        </mxCell>
        <mxCell id="s8GAoEmhAFOMZ-G4dZP0-3" value="&lt;font style=&quot;font-size: 24px;&quot;&gt;16x16&lt;/font&gt;" style="rounded=0;whiteSpace=wrap;html=1;fillColor=#dae8fc;strokeColor=#6c8ebf;" parent="1" vertex="1">
          <mxGeometry x="-160" y="-1320" width="160" height="160" as="geometry" />
        </mxCell>
        <mxCell id="s8GAoEmhAFOMZ-G4dZP0-4" value="&lt;font style=&quot;font-size: 24px;&quot;&gt;8x8&lt;/font&gt;" style="rounded=0;whiteSpace=wrap;html=1;fillColor=#d5e8d4;strokeColor=#82b366;" parent="1" vertex="1">
          <mxGeometry y="-1480" width="80" height="80" as="geometry" />
        </mxCell>
        <mxCell id="s8GAoEmhAFOMZ-G4dZP0-14" value="" style="rounded=0;whiteSpace=wrap;html=1;fillColor=#e1d5e7;strokeColor=#9673a6;" parent="1" vertex="1">
          <mxGeometry y="-1680" width="10" height="10" as="geometry" />
        </mxCell>
        <mxCell id="s8GAoEmhAFOMZ-G4dZP0-15" value="" style="rounded=0;whiteSpace=wrap;html=1;fillColor=#e1d5e7;strokeColor=#9673a6;" parent="1" vertex="1">
          <mxGeometry x="10" y="-1680" width="10" height="10" as="geometry" />
        </mxCell>
        <mxCell id="s8GAoEmhAFOMZ-G4dZP0-16" value="" style="rounded=0;whiteSpace=wrap;html=1;fillColor=#e1d5e7;strokeColor=#9673a6;" parent="1" vertex="1">
          <mxGeometry x="20" y="-1680" width="10" height="10" as="geometry" />
        </mxCell>
        <mxCell id="s8GAoEmhAFOMZ-G4dZP0-17" value="" style="rounded=0;whiteSpace=wrap;html=1;fillColor=#e1d5e7;strokeColor=#9673a6;" parent="1" vertex="1">
          <mxGeometry x="30" y="-1680" width="10" height="10" as="geometry" />
        </mxCell>
        <mxCell id="s8GAoEmhAFOMZ-G4dZP0-18" value="" style="rounded=0;whiteSpace=wrap;html=1;fillColor=#e1d5e7;strokeColor=#9673a6;" parent="1" vertex="1">
          <mxGeometry x="40" y="-1680" width="10" height="10" as="geometry" />
        </mxCell>
        <mxCell id="s8GAoEmhAFOMZ-G4dZP0-19" value="" style="rounded=0;whiteSpace=wrap;html=1;fillColor=#e1d5e7;strokeColor=#9673a6;" parent="1" vertex="1">
          <mxGeometry x="50" y="-1680" width="10" height="10" as="geometry" />
        </mxCell>
        <mxCell id="s8GAoEmhAFOMZ-G4dZP0-20" value="" style="rounded=0;whiteSpace=wrap;html=1;fillColor=#e1d5e7;strokeColor=#9673a6;" parent="1" vertex="1">
          <mxGeometry x="60" y="-1680" width="10" height="10" as="geometry" />
        </mxCell>
        <mxCell id="s8GAoEmhAFOMZ-G4dZP0-21" value="" style="rounded=0;whiteSpace=wrap;html=1;fillColor=#e1d5e7;strokeColor=#9673a6;" parent="1" vertex="1">
          <mxGeometry x="70" y="-1680" width="10" height="10" as="geometry" />
        </mxCell>
        <mxCell id="s8GAoEmhAFOMZ-G4dZP0-22" value="" style="rounded=0;whiteSpace=wrap;html=1;fillColor=#e1d5e7;strokeColor=#9673a6;" parent="1" vertex="1">
          <mxGeometry y="-1670" width="10" height="10" as="geometry" />
        </mxCell>
        <mxCell id="s8GAoEmhAFOMZ-G4dZP0-23" value="" style="rounded=0;whiteSpace=wrap;html=1;fillColor=#e1d5e7;strokeColor=#9673a6;" parent="1" vertex="1">
          <mxGeometry x="10" y="-1670" width="10" height="10" as="geometry" />
        </mxCell>
        <mxCell id="s8GAoEmhAFOMZ-G4dZP0-24" value="" style="rounded=0;whiteSpace=wrap;html=1;fillColor=#e1d5e7;strokeColor=#9673a6;" parent="1" vertex="1">
          <mxGeometry x="20" y="-1670" width="10" height="10" as="geometry" />
        </mxCell>
        <mxCell id="s8GAoEmhAFOMZ-G4dZP0-25" value="" style="rounded=0;whiteSpace=wrap;html=1;fillColor=#e1d5e7;strokeColor=#9673a6;" parent="1" vertex="1">
          <mxGeometry x="30" y="-1670" width="10" height="10" as="geometry" />
        </mxCell>
        <mxCell id="s8GAoEmhAFOMZ-G4dZP0-26" value="" style="rounded=0;whiteSpace=wrap;html=1;fillColor=#e1d5e7;strokeColor=#9673a6;" parent="1" vertex="1">
          <mxGeometry x="40" y="-1670" width="10" height="10" as="geometry" />
        </mxCell>
        <mxCell id="s8GAoEmhAFOMZ-G4dZP0-27" value="" style="rounded=0;whiteSpace=wrap;html=1;fillColor=#e1d5e7;strokeColor=#9673a6;" parent="1" vertex="1">
          <mxGeometry x="50" y="-1670" width="10" height="10" as="geometry" />
        </mxCell>
        <mxCell id="s8GAoEmhAFOMZ-G4dZP0-28" value="" style="rounded=0;whiteSpace=wrap;html=1;fillColor=#e1d5e7;strokeColor=#9673a6;" parent="1" vertex="1">
          <mxGeometry x="60" y="-1670" width="10" height="10" as="geometry" />
        </mxCell>
        <mxCell id="s8GAoEmhAFOMZ-G4dZP0-29" value="" style="rounded=0;whiteSpace=wrap;html=1;fillColor=#e1d5e7;strokeColor=#9673a6;" parent="1" vertex="1">
          <mxGeometry x="70" y="-1670" width="10" height="10" as="geometry" />
        </mxCell>
        <mxCell id="s8GAoEmhAFOMZ-G4dZP0-30" value="" style="rounded=0;whiteSpace=wrap;html=1;fillColor=#e1d5e7;strokeColor=#9673a6;" parent="1" vertex="1">
          <mxGeometry y="-1660" width="10" height="10" as="geometry" />
        </mxCell>
        <mxCell id="s8GAoEmhAFOMZ-G4dZP0-31" value="" style="rounded=0;whiteSpace=wrap;html=1;fillColor=#e1d5e7;strokeColor=#9673a6;" parent="1" vertex="1">
          <mxGeometry x="10" y="-1660" width="10" height="10" as="geometry" />
        </mxCell>
        <mxCell id="s8GAoEmhAFOMZ-G4dZP0-32" value="" style="rounded=0;whiteSpace=wrap;html=1;fillColor=#e1d5e7;strokeColor=#9673a6;" parent="1" vertex="1">
          <mxGeometry x="20" y="-1660" width="10" height="10" as="geometry" />
        </mxCell>
        <mxCell id="s8GAoEmhAFOMZ-G4dZP0-33" value="" style="rounded=0;whiteSpace=wrap;html=1;fillColor=#e1d5e7;strokeColor=#9673a6;" parent="1" vertex="1">
          <mxGeometry x="30" y="-1660" width="10" height="10" as="geometry" />
        </mxCell>
        <mxCell id="s8GAoEmhAFOMZ-G4dZP0-34" value="" style="rounded=0;whiteSpace=wrap;html=1;fillColor=#e1d5e7;strokeColor=#9673a6;" parent="1" vertex="1">
          <mxGeometry x="40" y="-1660" width="10" height="10" as="geometry" />
        </mxCell>
        <mxCell id="s8GAoEmhAFOMZ-G4dZP0-35" value="" style="rounded=0;whiteSpace=wrap;html=1;fillColor=#e1d5e7;strokeColor=#9673a6;" parent="1" vertex="1">
          <mxGeometry x="50" y="-1660" width="10" height="10" as="geometry" />
        </mxCell>
        <mxCell id="s8GAoEmhAFOMZ-G4dZP0-36" value="" style="rounded=0;whiteSpace=wrap;html=1;fillColor=#e1d5e7;strokeColor=#9673a6;" parent="1" vertex="1">
          <mxGeometry x="60" y="-1660" width="10" height="10" as="geometry" />
        </mxCell>
        <mxCell id="s8GAoEmhAFOMZ-G4dZP0-37" value="" style="rounded=0;whiteSpace=wrap;html=1;fillColor=#e1d5e7;strokeColor=#9673a6;" parent="1" vertex="1">
          <mxGeometry x="70" y="-1660" width="10" height="10" as="geometry" />
        </mxCell>
        <mxCell id="s8GAoEmhAFOMZ-G4dZP0-38" value="" style="rounded=0;whiteSpace=wrap;html=1;fillColor=#e1d5e7;strokeColor=#9673a6;" parent="1" vertex="1">
          <mxGeometry y="-1650" width="10" height="10" as="geometry" />
        </mxCell>
        <mxCell id="s8GAoEmhAFOMZ-G4dZP0-39" value="" style="rounded=0;whiteSpace=wrap;html=1;fillColor=#e1d5e7;strokeColor=#9673a6;" parent="1" vertex="1">
          <mxGeometry x="10" y="-1650" width="10" height="10" as="geometry" />
        </mxCell>
        <mxCell id="s8GAoEmhAFOMZ-G4dZP0-40" value="" style="rounded=0;whiteSpace=wrap;html=1;fillColor=#e1d5e7;strokeColor=#9673a6;" parent="1" vertex="1">
          <mxGeometry x="20" y="-1650" width="10" height="10" as="geometry" />
        </mxCell>
        <mxCell id="s8GAoEmhAFOMZ-G4dZP0-41" value="" style="rounded=0;whiteSpace=wrap;html=1;fillColor=#e1d5e7;strokeColor=#9673a6;" parent="1" vertex="1">
          <mxGeometry x="30" y="-1650" width="10" height="10" as="geometry" />
        </mxCell>
        <mxCell id="s8GAoEmhAFOMZ-G4dZP0-42" value="" style="rounded=0;whiteSpace=wrap;html=1;fillColor=#e1d5e7;strokeColor=#9673a6;" parent="1" vertex="1">
          <mxGeometry x="40" y="-1650" width="10" height="10" as="geometry" />
        </mxCell>
        <mxCell id="s8GAoEmhAFOMZ-G4dZP0-43" value="" style="rounded=0;whiteSpace=wrap;html=1;fillColor=#e1d5e7;strokeColor=#9673a6;" parent="1" vertex="1">
          <mxGeometry x="50" y="-1650" width="10" height="10" as="geometry" />
        </mxCell>
        <mxCell id="s8GAoEmhAFOMZ-G4dZP0-44" value="" style="rounded=0;whiteSpace=wrap;html=1;fillColor=#e1d5e7;strokeColor=#9673a6;" parent="1" vertex="1">
          <mxGeometry x="60" y="-1650" width="10" height="10" as="geometry" />
        </mxCell>
        <mxCell id="s8GAoEmhAFOMZ-G4dZP0-45" value="" style="rounded=0;whiteSpace=wrap;html=1;fillColor=#e1d5e7;strokeColor=#9673a6;" parent="1" vertex="1">
          <mxGeometry x="70" y="-1650" width="10" height="10" as="geometry" />
        </mxCell>
        <mxCell id="s8GAoEmhAFOMZ-G4dZP0-46" value="" style="rounded=0;whiteSpace=wrap;html=1;fillColor=#e1d5e7;strokeColor=#9673a6;" parent="1" vertex="1">
          <mxGeometry y="-1640" width="10" height="10" as="geometry" />
        </mxCell>
        <mxCell id="s8GAoEmhAFOMZ-G4dZP0-47" value="" style="rounded=0;whiteSpace=wrap;html=1;fillColor=#e1d5e7;strokeColor=#9673a6;" parent="1" vertex="1">
          <mxGeometry x="10" y="-1640" width="10" height="10" as="geometry" />
        </mxCell>
        <mxCell id="s8GAoEmhAFOMZ-G4dZP0-48" value="" style="rounded=0;whiteSpace=wrap;html=1;fillColor=#e1d5e7;strokeColor=#9673a6;" parent="1" vertex="1">
          <mxGeometry x="20" y="-1640" width="10" height="10" as="geometry" />
        </mxCell>
        <mxCell id="s8GAoEmhAFOMZ-G4dZP0-49" value="" style="rounded=0;whiteSpace=wrap;html=1;fillColor=#e1d5e7;strokeColor=#9673a6;" parent="1" vertex="1">
          <mxGeometry x="30" y="-1640" width="10" height="10" as="geometry" />
        </mxCell>
        <mxCell id="s8GAoEmhAFOMZ-G4dZP0-50" value="" style="rounded=0;whiteSpace=wrap;html=1;fillColor=#e1d5e7;strokeColor=#9673a6;" parent="1" vertex="1">
          <mxGeometry x="40" y="-1640" width="10" height="10" as="geometry" />
        </mxCell>
        <mxCell id="s8GAoEmhAFOMZ-G4dZP0-51" value="" style="rounded=0;whiteSpace=wrap;html=1;fillColor=#e1d5e7;strokeColor=#9673a6;" parent="1" vertex="1">
          <mxGeometry x="50" y="-1640" width="10" height="10" as="geometry" />
        </mxCell>
        <mxCell id="s8GAoEmhAFOMZ-G4dZP0-52" value="" style="rounded=0;whiteSpace=wrap;html=1;fillColor=#e1d5e7;strokeColor=#9673a6;" parent="1" vertex="1">
          <mxGeometry x="60" y="-1640" width="10" height="10" as="geometry" />
        </mxCell>
        <mxCell id="s8GAoEmhAFOMZ-G4dZP0-53" value="" style="rounded=0;whiteSpace=wrap;html=1;fillColor=#e1d5e7;strokeColor=#9673a6;" parent="1" vertex="1">
          <mxGeometry x="70" y="-1640" width="10" height="10" as="geometry" />
        </mxCell>
        <mxCell id="s8GAoEmhAFOMZ-G4dZP0-54" value="" style="rounded=0;whiteSpace=wrap;html=1;fillColor=#e1d5e7;strokeColor=#9673a6;" parent="1" vertex="1">
          <mxGeometry y="-1630" width="10" height="10" as="geometry" />
        </mxCell>
        <mxCell id="s8GAoEmhAFOMZ-G4dZP0-55" value="" style="rounded=0;whiteSpace=wrap;html=1;fillColor=#e1d5e7;strokeColor=#9673a6;" parent="1" vertex="1">
          <mxGeometry x="10" y="-1630" width="10" height="10" as="geometry" />
        </mxCell>
        <mxCell id="s8GAoEmhAFOMZ-G4dZP0-56" value="" style="rounded=0;whiteSpace=wrap;html=1;fillColor=#e1d5e7;strokeColor=#9673a6;" parent="1" vertex="1">
          <mxGeometry x="20" y="-1630" width="10" height="10" as="geometry" />
        </mxCell>
        <mxCell id="s8GAoEmhAFOMZ-G4dZP0-57" value="" style="rounded=0;whiteSpace=wrap;html=1;fillColor=#e1d5e7;strokeColor=#9673a6;" parent="1" vertex="1">
          <mxGeometry x="30" y="-1630" width="10" height="10" as="geometry" />
        </mxCell>
        <mxCell id="s8GAoEmhAFOMZ-G4dZP0-58" value="" style="rounded=0;whiteSpace=wrap;html=1;fillColor=#e1d5e7;strokeColor=#9673a6;" parent="1" vertex="1">
          <mxGeometry x="40" y="-1630" width="10" height="10" as="geometry" />
        </mxCell>
        <mxCell id="s8GAoEmhAFOMZ-G4dZP0-59" value="" style="rounded=0;whiteSpace=wrap;html=1;fillColor=#e1d5e7;strokeColor=#9673a6;" parent="1" vertex="1">
          <mxGeometry x="50" y="-1630" width="10" height="10" as="geometry" />
        </mxCell>
        <mxCell id="s8GAoEmhAFOMZ-G4dZP0-60" value="" style="rounded=0;whiteSpace=wrap;html=1;fillColor=#e1d5e7;strokeColor=#9673a6;" parent="1" vertex="1">
          <mxGeometry x="60" y="-1630" width="10" height="10" as="geometry" />
        </mxCell>
        <mxCell id="s8GAoEmhAFOMZ-G4dZP0-61" value="" style="rounded=0;whiteSpace=wrap;html=1;fillColor=#e1d5e7;strokeColor=#9673a6;" parent="1" vertex="1">
          <mxGeometry x="70" y="-1630" width="10" height="10" as="geometry" />
        </mxCell>
        <mxCell id="s8GAoEmhAFOMZ-G4dZP0-62" value="" style="rounded=0;whiteSpace=wrap;html=1;fillColor=#e1d5e7;strokeColor=#9673a6;" parent="1" vertex="1">
          <mxGeometry y="-1620" width="10" height="10" as="geometry" />
        </mxCell>
        <mxCell id="s8GAoEmhAFOMZ-G4dZP0-63" value="" style="rounded=0;whiteSpace=wrap;html=1;fillColor=#e1d5e7;strokeColor=#9673a6;" parent="1" vertex="1">
          <mxGeometry x="10" y="-1620" width="10" height="10" as="geometry" />
        </mxCell>
        <mxCell id="s8GAoEmhAFOMZ-G4dZP0-64" value="" style="rounded=0;whiteSpace=wrap;html=1;fillColor=#e1d5e7;strokeColor=#9673a6;" parent="1" vertex="1">
          <mxGeometry x="20" y="-1620" width="10" height="10" as="geometry" />
        </mxCell>
        <mxCell id="s8GAoEmhAFOMZ-G4dZP0-65" value="" style="rounded=0;whiteSpace=wrap;html=1;fillColor=#e1d5e7;strokeColor=#9673a6;" parent="1" vertex="1">
          <mxGeometry x="30" y="-1620" width="10" height="10" as="geometry" />
        </mxCell>
        <mxCell id="s8GAoEmhAFOMZ-G4dZP0-66" value="" style="rounded=0;whiteSpace=wrap;html=1;fillColor=#e1d5e7;strokeColor=#9673a6;" parent="1" vertex="1">
          <mxGeometry x="40" y="-1620" width="10" height="10" as="geometry" />
        </mxCell>
        <mxCell id="s8GAoEmhAFOMZ-G4dZP0-67" value="" style="rounded=0;whiteSpace=wrap;html=1;fillColor=#e1d5e7;strokeColor=#9673a6;" parent="1" vertex="1">
          <mxGeometry x="50" y="-1620" width="10" height="10" as="geometry" />
        </mxCell>
        <mxCell id="s8GAoEmhAFOMZ-G4dZP0-68" value="" style="rounded=0;whiteSpace=wrap;html=1;fillColor=#e1d5e7;strokeColor=#9673a6;" parent="1" vertex="1">
          <mxGeometry x="60" y="-1620" width="10" height="10" as="geometry" />
        </mxCell>
        <mxCell id="s8GAoEmhAFOMZ-G4dZP0-69" value="" style="rounded=0;whiteSpace=wrap;html=1;fillColor=#e1d5e7;strokeColor=#9673a6;" parent="1" vertex="1">
          <mxGeometry x="70" y="-1620" width="10" height="10" as="geometry" />
        </mxCell>
        <mxCell id="s8GAoEmhAFOMZ-G4dZP0-70" value="" style="rounded=0;whiteSpace=wrap;html=1;fillColor=#e1d5e7;strokeColor=#9673a6;" parent="1" vertex="1">
          <mxGeometry y="-1610" width="10" height="10" as="geometry" />
        </mxCell>
        <mxCell id="s8GAoEmhAFOMZ-G4dZP0-71" value="" style="rounded=0;whiteSpace=wrap;html=1;fillColor=#e1d5e7;strokeColor=#9673a6;" parent="1" vertex="1">
          <mxGeometry x="10" y="-1610" width="10" height="10" as="geometry" />
        </mxCell>
        <mxCell id="s8GAoEmhAFOMZ-G4dZP0-72" value="" style="rounded=0;whiteSpace=wrap;html=1;fillColor=#e1d5e7;strokeColor=#9673a6;" parent="1" vertex="1">
          <mxGeometry x="20" y="-1610" width="10" height="10" as="geometry" />
        </mxCell>
        <mxCell id="s8GAoEmhAFOMZ-G4dZP0-73" value="" style="rounded=0;whiteSpace=wrap;html=1;fillColor=#e1d5e7;strokeColor=#9673a6;" parent="1" vertex="1">
          <mxGeometry x="30" y="-1610" width="10" height="10" as="geometry" />
        </mxCell>
        <mxCell id="s8GAoEmhAFOMZ-G4dZP0-74" value="" style="rounded=0;whiteSpace=wrap;html=1;fillColor=#e1d5e7;strokeColor=#9673a6;" parent="1" vertex="1">
          <mxGeometry x="40" y="-1610" width="10" height="10" as="geometry" />
        </mxCell>
        <mxCell id="s8GAoEmhAFOMZ-G4dZP0-75" value="" style="rounded=0;whiteSpace=wrap;html=1;fillColor=#e1d5e7;strokeColor=#9673a6;" parent="1" vertex="1">
          <mxGeometry x="50" y="-1610" width="10" height="10" as="geometry" />
        </mxCell>
        <mxCell id="s8GAoEmhAFOMZ-G4dZP0-76" value="" style="rounded=0;whiteSpace=wrap;html=1;fillColor=#e1d5e7;strokeColor=#9673a6;" parent="1" vertex="1">
          <mxGeometry x="60" y="-1610" width="10" height="10" as="geometry" />
        </mxCell>
        <mxCell id="s8GAoEmhAFOMZ-G4dZP0-77" value="" style="rounded=0;whiteSpace=wrap;html=1;fillColor=#e1d5e7;strokeColor=#9673a6;" parent="1" vertex="1">
          <mxGeometry x="70" y="-1610" width="10" height="10" as="geometry" />
        </mxCell>
        <mxCell id="s8GAoEmhAFOMZ-G4dZP0-78" value="" style="rounded=0;whiteSpace=wrap;html=1;fillColor=#e1d5e7;strokeColor=#9673a6;" parent="1" vertex="1">
          <mxGeometry y="-1600" width="10" height="10" as="geometry" />
        </mxCell>
        <mxCell id="s8GAoEmhAFOMZ-G4dZP0-79" value="" style="rounded=0;whiteSpace=wrap;html=1;fillColor=#e1d5e7;strokeColor=#9673a6;" parent="1" vertex="1">
          <mxGeometry x="10" y="-1600" width="10" height="10" as="geometry" />
        </mxCell>
        <mxCell id="s8GAoEmhAFOMZ-G4dZP0-80" value="" style="rounded=0;whiteSpace=wrap;html=1;fillColor=#e1d5e7;strokeColor=#9673a6;" parent="1" vertex="1">
          <mxGeometry x="20" y="-1600" width="10" height="10" as="geometry" />
        </mxCell>
        <mxCell id="s8GAoEmhAFOMZ-G4dZP0-81" value="" style="rounded=0;whiteSpace=wrap;html=1;fillColor=#e1d5e7;strokeColor=#9673a6;" parent="1" vertex="1">
          <mxGeometry x="30" y="-1600" width="10" height="10" as="geometry" />
        </mxCell>
        <mxCell id="s8GAoEmhAFOMZ-G4dZP0-82" value="" style="rounded=0;whiteSpace=wrap;html=1;fillColor=#e1d5e7;strokeColor=#9673a6;" parent="1" vertex="1">
          <mxGeometry x="40" y="-1600" width="10" height="10" as="geometry" />
        </mxCell>
        <mxCell id="s8GAoEmhAFOMZ-G4dZP0-83" value="" style="rounded=0;whiteSpace=wrap;html=1;fillColor=#e1d5e7;strokeColor=#9673a6;" parent="1" vertex="1">
          <mxGeometry x="50" y="-1600" width="10" height="10" as="geometry" />
        </mxCell>
        <mxCell id="s8GAoEmhAFOMZ-G4dZP0-84" value="" style="rounded=0;whiteSpace=wrap;html=1;fillColor=#e1d5e7;strokeColor=#9673a6;" parent="1" vertex="1">
          <mxGeometry x="60" y="-1600" width="10" height="10" as="geometry" />
        </mxCell>
        <mxCell id="s8GAoEmhAFOMZ-G4dZP0-85" value="" style="rounded=0;whiteSpace=wrap;html=1;fillColor=#e1d5e7;strokeColor=#9673a6;" parent="1" vertex="1">
          <mxGeometry x="70" y="-1600" width="10" height="10" as="geometry" />
        </mxCell>
        <mxCell id="s8GAoEmhAFOMZ-G4dZP0-86" value="" style="rounded=0;whiteSpace=wrap;html=1;fillColor=#e1d5e7;strokeColor=#9673a6;" parent="1" vertex="1">
          <mxGeometry y="-1590" width="10" height="10" as="geometry" />
        </mxCell>
        <mxCell id="s8GAoEmhAFOMZ-G4dZP0-87" value="" style="rounded=0;whiteSpace=wrap;html=1;fillColor=#e1d5e7;strokeColor=#9673a6;" parent="1" vertex="1">
          <mxGeometry x="10" y="-1590" width="10" height="10" as="geometry" />
        </mxCell>
        <mxCell id="s8GAoEmhAFOMZ-G4dZP0-88" value="" style="rounded=0;whiteSpace=wrap;html=1;fillColor=#e1d5e7;strokeColor=#9673a6;" parent="1" vertex="1">
          <mxGeometry x="20" y="-1590" width="10" height="10" as="geometry" />
        </mxCell>
        <mxCell id="s8GAoEmhAFOMZ-G4dZP0-89" value="" style="rounded=0;whiteSpace=wrap;html=1;fillColor=#e1d5e7;strokeColor=#9673a6;" parent="1" vertex="1">
          <mxGeometry x="30" y="-1590" width="10" height="10" as="geometry" />
        </mxCell>
        <mxCell id="s8GAoEmhAFOMZ-G4dZP0-90" value="" style="rounded=0;whiteSpace=wrap;html=1;fillColor=#e1d5e7;strokeColor=#9673a6;" parent="1" vertex="1">
          <mxGeometry x="40" y="-1590" width="10" height="10" as="geometry" />
        </mxCell>
        <mxCell id="s8GAoEmhAFOMZ-G4dZP0-91" value="" style="rounded=0;whiteSpace=wrap;html=1;fillColor=#e1d5e7;strokeColor=#9673a6;" parent="1" vertex="1">
          <mxGeometry x="50" y="-1590" width="10" height="10" as="geometry" />
        </mxCell>
        <mxCell id="s8GAoEmhAFOMZ-G4dZP0-92" value="" style="rounded=0;whiteSpace=wrap;html=1;fillColor=#e1d5e7;strokeColor=#9673a6;" parent="1" vertex="1">
          <mxGeometry x="60" y="-1590" width="10" height="10" as="geometry" />
        </mxCell>
        <mxCell id="s8GAoEmhAFOMZ-G4dZP0-93" value="" style="rounded=0;whiteSpace=wrap;html=1;fillColor=#e1d5e7;strokeColor=#9673a6;" parent="1" vertex="1">
          <mxGeometry x="70" y="-1590" width="10" height="10" as="geometry" />
        </mxCell>
        <mxCell id="s8GAoEmhAFOMZ-G4dZP0-94" value="" style="rounded=0;whiteSpace=wrap;html=1;fillColor=#e1d5e7;strokeColor=#9673a6;" parent="1" vertex="1">
          <mxGeometry y="-1580" width="10" height="10" as="geometry" />
        </mxCell>
        <mxCell id="s8GAoEmhAFOMZ-G4dZP0-95" value="" style="rounded=0;whiteSpace=wrap;html=1;fillColor=#e1d5e7;strokeColor=#9673a6;" parent="1" vertex="1">
          <mxGeometry x="10" y="-1580" width="10" height="10" as="geometry" />
        </mxCell>
        <mxCell id="s8GAoEmhAFOMZ-G4dZP0-96" value="" style="rounded=0;whiteSpace=wrap;html=1;fillColor=#e1d5e7;strokeColor=#9673a6;" parent="1" vertex="1">
          <mxGeometry x="20" y="-1580" width="10" height="10" as="geometry" />
        </mxCell>
        <mxCell id="s8GAoEmhAFOMZ-G4dZP0-97" value="" style="rounded=0;whiteSpace=wrap;html=1;fillColor=#e1d5e7;strokeColor=#9673a6;" parent="1" vertex="1">
          <mxGeometry x="30" y="-1580" width="10" height="10" as="geometry" />
        </mxCell>
        <mxCell id="s8GAoEmhAFOMZ-G4dZP0-98" value="" style="rounded=0;whiteSpace=wrap;html=1;fillColor=#e1d5e7;strokeColor=#9673a6;" parent="1" vertex="1">
          <mxGeometry x="40" y="-1580" width="10" height="10" as="geometry" />
        </mxCell>
        <mxCell id="s8GAoEmhAFOMZ-G4dZP0-99" value="" style="rounded=0;whiteSpace=wrap;html=1;fillColor=#e1d5e7;strokeColor=#9673a6;" parent="1" vertex="1">
          <mxGeometry x="50" y="-1580" width="10" height="10" as="geometry" />
        </mxCell>
        <mxCell id="s8GAoEmhAFOMZ-G4dZP0-100" value="" style="rounded=0;whiteSpace=wrap;html=1;fillColor=#e1d5e7;strokeColor=#9673a6;" parent="1" vertex="1">
          <mxGeometry x="60" y="-1580" width="10" height="10" as="geometry" />
        </mxCell>
        <mxCell id="s8GAoEmhAFOMZ-G4dZP0-101" value="" style="rounded=0;whiteSpace=wrap;html=1;fillColor=#e1d5e7;strokeColor=#9673a6;" parent="1" vertex="1">
          <mxGeometry x="70" y="-1580" width="10" height="10" as="geometry" />
        </mxCell>
        <mxCell id="s8GAoEmhAFOMZ-G4dZP0-102" value="" style="rounded=0;whiteSpace=wrap;html=1;fillColor=#e1d5e7;strokeColor=#9673a6;" parent="1" vertex="1">
          <mxGeometry y="-1570" width="10" height="10" as="geometry" />
        </mxCell>
        <mxCell id="s8GAoEmhAFOMZ-G4dZP0-103" value="" style="rounded=0;whiteSpace=wrap;html=1;fillColor=#e1d5e7;strokeColor=#9673a6;" parent="1" vertex="1">
          <mxGeometry x="10" y="-1570" width="10" height="10" as="geometry" />
        </mxCell>
        <mxCell id="s8GAoEmhAFOMZ-G4dZP0-104" value="" style="rounded=0;whiteSpace=wrap;html=1;fillColor=#e1d5e7;strokeColor=#9673a6;" parent="1" vertex="1">
          <mxGeometry x="20" y="-1570" width="10" height="10" as="geometry" />
        </mxCell>
        <mxCell id="s8GAoEmhAFOMZ-G4dZP0-105" value="" style="rounded=0;whiteSpace=wrap;html=1;fillColor=#e1d5e7;strokeColor=#9673a6;" parent="1" vertex="1">
          <mxGeometry x="30" y="-1570" width="10" height="10" as="geometry" />
        </mxCell>
        <mxCell id="s8GAoEmhAFOMZ-G4dZP0-106" value="" style="rounded=0;whiteSpace=wrap;html=1;fillColor=#e1d5e7;strokeColor=#9673a6;" parent="1" vertex="1">
          <mxGeometry x="40" y="-1570" width="10" height="10" as="geometry" />
        </mxCell>
        <mxCell id="s8GAoEmhAFOMZ-G4dZP0-107" value="" style="rounded=0;whiteSpace=wrap;html=1;fillColor=#e1d5e7;strokeColor=#9673a6;" parent="1" vertex="1">
          <mxGeometry x="50" y="-1570" width="10" height="10" as="geometry" />
        </mxCell>
        <mxCell id="s8GAoEmhAFOMZ-G4dZP0-108" value="" style="rounded=0;whiteSpace=wrap;html=1;fillColor=#e1d5e7;strokeColor=#9673a6;" parent="1" vertex="1">
          <mxGeometry x="60" y="-1570" width="10" height="10" as="geometry" />
        </mxCell>
        <mxCell id="s8GAoEmhAFOMZ-G4dZP0-109" value="" style="rounded=0;whiteSpace=wrap;html=1;fillColor=#e1d5e7;strokeColor=#9673a6;" parent="1" vertex="1">
          <mxGeometry x="70" y="-1570" width="10" height="10" as="geometry" />
        </mxCell>
        <mxCell id="s8GAoEmhAFOMZ-G4dZP0-110" value="" style="rounded=0;whiteSpace=wrap;html=1;fillColor=#e1d5e7;strokeColor=#9673a6;" parent="1" vertex="1">
          <mxGeometry y="-1560" width="10" height="10" as="geometry" />
        </mxCell>
        <mxCell id="s8GAoEmhAFOMZ-G4dZP0-111" value="" style="rounded=0;whiteSpace=wrap;html=1;fillColor=#e1d5e7;strokeColor=#9673a6;" parent="1" vertex="1">
          <mxGeometry x="10" y="-1560" width="10" height="10" as="geometry" />
        </mxCell>
        <mxCell id="s8GAoEmhAFOMZ-G4dZP0-112" value="" style="rounded=0;whiteSpace=wrap;html=1;fillColor=#e1d5e7;strokeColor=#9673a6;" parent="1" vertex="1">
          <mxGeometry x="20" y="-1560" width="10" height="10" as="geometry" />
        </mxCell>
        <mxCell id="s8GAoEmhAFOMZ-G4dZP0-113" value="" style="rounded=0;whiteSpace=wrap;html=1;fillColor=#e1d5e7;strokeColor=#9673a6;" parent="1" vertex="1">
          <mxGeometry x="30" y="-1560" width="10" height="10" as="geometry" />
        </mxCell>
        <mxCell id="s8GAoEmhAFOMZ-G4dZP0-114" value="" style="rounded=0;whiteSpace=wrap;html=1;fillColor=#e1d5e7;strokeColor=#9673a6;" parent="1" vertex="1">
          <mxGeometry x="40" y="-1560" width="10" height="10" as="geometry" />
        </mxCell>
        <mxCell id="s8GAoEmhAFOMZ-G4dZP0-115" value="" style="rounded=0;whiteSpace=wrap;html=1;fillColor=#e1d5e7;strokeColor=#9673a6;" parent="1" vertex="1">
          <mxGeometry x="50" y="-1560" width="10" height="10" as="geometry" />
        </mxCell>
        <mxCell id="s8GAoEmhAFOMZ-G4dZP0-116" value="" style="rounded=0;whiteSpace=wrap;html=1;fillColor=#e1d5e7;strokeColor=#9673a6;" parent="1" vertex="1">
          <mxGeometry x="60" y="-1560" width="10" height="10" as="geometry" />
        </mxCell>
        <mxCell id="s8GAoEmhAFOMZ-G4dZP0-117" value="" style="rounded=0;whiteSpace=wrap;html=1;fillColor=#e1d5e7;strokeColor=#9673a6;" parent="1" vertex="1">
          <mxGeometry x="70" y="-1560" width="10" height="10" as="geometry" />
        </mxCell>
        <mxCell id="s8GAoEmhAFOMZ-G4dZP0-118" value="" style="rounded=0;whiteSpace=wrap;html=1;fillColor=#e1d5e7;strokeColor=#9673a6;" parent="1" vertex="1">
          <mxGeometry y="-1550" width="10" height="10" as="geometry" />
        </mxCell>
        <mxCell id="s8GAoEmhAFOMZ-G4dZP0-119" value="" style="rounded=0;whiteSpace=wrap;html=1;fillColor=#e1d5e7;strokeColor=#9673a6;" parent="1" vertex="1">
          <mxGeometry x="10" y="-1550" width="10" height="10" as="geometry" />
        </mxCell>
        <mxCell id="s8GAoEmhAFOMZ-G4dZP0-120" value="" style="rounded=0;whiteSpace=wrap;html=1;fillColor=#e1d5e7;strokeColor=#9673a6;" parent="1" vertex="1">
          <mxGeometry x="20" y="-1550" width="10" height="10" as="geometry" />
        </mxCell>
        <mxCell id="s8GAoEmhAFOMZ-G4dZP0-121" value="" style="rounded=0;whiteSpace=wrap;html=1;fillColor=#e1d5e7;strokeColor=#9673a6;" parent="1" vertex="1">
          <mxGeometry x="30" y="-1550" width="10" height="10" as="geometry" />
        </mxCell>
        <mxCell id="s8GAoEmhAFOMZ-G4dZP0-122" value="" style="rounded=0;whiteSpace=wrap;html=1;fillColor=#e1d5e7;strokeColor=#9673a6;" parent="1" vertex="1">
          <mxGeometry x="40" y="-1550" width="10" height="10" as="geometry" />
        </mxCell>
        <mxCell id="s8GAoEmhAFOMZ-G4dZP0-123" value="" style="rounded=0;whiteSpace=wrap;html=1;fillColor=#e1d5e7;strokeColor=#9673a6;" parent="1" vertex="1">
          <mxGeometry x="50" y="-1550" width="10" height="10" as="geometry" />
        </mxCell>
        <mxCell id="s8GAoEmhAFOMZ-G4dZP0-124" value="" style="rounded=0;whiteSpace=wrap;html=1;fillColor=#e1d5e7;strokeColor=#9673a6;" parent="1" vertex="1">
          <mxGeometry x="60" y="-1550" width="10" height="10" as="geometry" />
        </mxCell>
        <mxCell id="s8GAoEmhAFOMZ-G4dZP0-125" value="" style="rounded=0;whiteSpace=wrap;html=1;fillColor=#e1d5e7;strokeColor=#9673a6;" parent="1" vertex="1">
          <mxGeometry x="70" y="-1550" width="10" height="10" as="geometry" />
        </mxCell>
        <mxCell id="s8GAoEmhAFOMZ-G4dZP0-126" value="" style="rounded=0;whiteSpace=wrap;html=1;fillColor=#e1d5e7;strokeColor=#9673a6;" parent="1" vertex="1">
          <mxGeometry y="-1540" width="10" height="10" as="geometry" />
        </mxCell>
        <mxCell id="s8GAoEmhAFOMZ-G4dZP0-127" value="" style="rounded=0;whiteSpace=wrap;html=1;fillColor=#e1d5e7;strokeColor=#9673a6;" parent="1" vertex="1">
          <mxGeometry x="10" y="-1540" width="10" height="10" as="geometry" />
        </mxCell>
        <mxCell id="s8GAoEmhAFOMZ-G4dZP0-128" value="" style="rounded=0;whiteSpace=wrap;html=1;fillColor=#e1d5e7;strokeColor=#9673a6;" parent="1" vertex="1">
          <mxGeometry x="20" y="-1540" width="10" height="10" as="geometry" />
        </mxCell>
        <mxCell id="s8GAoEmhAFOMZ-G4dZP0-129" value="" style="rounded=0;whiteSpace=wrap;html=1;fillColor=#e1d5e7;strokeColor=#9673a6;" parent="1" vertex="1">
          <mxGeometry x="30" y="-1540" width="10" height="10" as="geometry" />
        </mxCell>
        <mxCell id="s8GAoEmhAFOMZ-G4dZP0-130" value="" style="rounded=0;whiteSpace=wrap;html=1;fillColor=#e1d5e7;strokeColor=#9673a6;" parent="1" vertex="1">
          <mxGeometry x="40" y="-1540" width="10" height="10" as="geometry" />
        </mxCell>
        <mxCell id="s8GAoEmhAFOMZ-G4dZP0-131" value="" style="rounded=0;whiteSpace=wrap;html=1;fillColor=#e1d5e7;strokeColor=#9673a6;" parent="1" vertex="1">
          <mxGeometry x="50" y="-1540" width="10" height="10" as="geometry" />
        </mxCell>
        <mxCell id="s8GAoEmhAFOMZ-G4dZP0-132" value="" style="rounded=0;whiteSpace=wrap;html=1;fillColor=#e1d5e7;strokeColor=#9673a6;" parent="1" vertex="1">
          <mxGeometry x="60" y="-1540" width="10" height="10" as="geometry" />
        </mxCell>
        <mxCell id="s8GAoEmhAFOMZ-G4dZP0-133" value="" style="rounded=0;whiteSpace=wrap;html=1;fillColor=#e1d5e7;strokeColor=#9673a6;" parent="1" vertex="1">
          <mxGeometry x="70" y="-1540" width="10" height="10" as="geometry" />
        </mxCell>
        <mxCell id="s8GAoEmhAFOMZ-G4dZP0-134" value="" style="rounded=0;whiteSpace=wrap;html=1;fillColor=#e1d5e7;strokeColor=#9673a6;" parent="1" vertex="1">
          <mxGeometry y="-1530" width="10" height="10" as="geometry" />
        </mxCell>
        <mxCell id="s8GAoEmhAFOMZ-G4dZP0-135" value="" style="rounded=0;whiteSpace=wrap;html=1;fillColor=#e1d5e7;strokeColor=#9673a6;" parent="1" vertex="1">
          <mxGeometry x="10" y="-1530" width="10" height="10" as="geometry" />
        </mxCell>
        <mxCell id="s8GAoEmhAFOMZ-G4dZP0-136" value="" style="rounded=0;whiteSpace=wrap;html=1;fillColor=#e1d5e7;strokeColor=#9673a6;" parent="1" vertex="1">
          <mxGeometry x="20" y="-1530" width="10" height="10" as="geometry" />
        </mxCell>
        <mxCell id="s8GAoEmhAFOMZ-G4dZP0-137" value="" style="rounded=0;whiteSpace=wrap;html=1;fillColor=#e1d5e7;strokeColor=#9673a6;" parent="1" vertex="1">
          <mxGeometry x="30" y="-1530" width="10" height="10" as="geometry" />
        </mxCell>
        <mxCell id="s8GAoEmhAFOMZ-G4dZP0-138" value="" style="rounded=0;whiteSpace=wrap;html=1;fillColor=#e1d5e7;strokeColor=#9673a6;" parent="1" vertex="1">
          <mxGeometry x="40" y="-1530" width="10" height="10" as="geometry" />
        </mxCell>
        <mxCell id="s8GAoEmhAFOMZ-G4dZP0-139" value="" style="rounded=0;whiteSpace=wrap;html=1;fillColor=#e1d5e7;strokeColor=#9673a6;" parent="1" vertex="1">
          <mxGeometry x="50" y="-1530" width="10" height="10" as="geometry" />
        </mxCell>
        <mxCell id="s8GAoEmhAFOMZ-G4dZP0-140" value="" style="rounded=0;whiteSpace=wrap;html=1;fillColor=#e1d5e7;strokeColor=#9673a6;" parent="1" vertex="1">
          <mxGeometry x="60" y="-1530" width="10" height="10" as="geometry" />
        </mxCell>
        <mxCell id="s8GAoEmhAFOMZ-G4dZP0-141" value="" style="rounded=0;whiteSpace=wrap;html=1;fillColor=#e1d5e7;strokeColor=#9673a6;" parent="1" vertex="1">
          <mxGeometry x="70" y="-1530" width="10" height="10" as="geometry" />
        </mxCell>
        <mxCell id="s8GAoEmhAFOMZ-G4dZP0-142" value="" style="rounded=0;whiteSpace=wrap;html=1;fillColor=#e1d5e7;strokeColor=#9673a6;" parent="1" vertex="1">
          <mxGeometry y="-1840" width="10" height="10" as="geometry" />
        </mxCell>
        <mxCell id="s8GAoEmhAFOMZ-G4dZP0-143" value="" style="rounded=0;whiteSpace=wrap;html=1;fillColor=#e1d5e7;strokeColor=#9673a6;" parent="1" vertex="1">
          <mxGeometry x="10" y="-1840" width="10" height="10" as="geometry" />
        </mxCell>
        <mxCell id="s8GAoEmhAFOMZ-G4dZP0-144" value="" style="rounded=0;whiteSpace=wrap;html=1;fillColor=#e1d5e7;strokeColor=#9673a6;" parent="1" vertex="1">
          <mxGeometry x="20" y="-1840" width="10" height="10" as="geometry" />
        </mxCell>
        <mxCell id="s8GAoEmhAFOMZ-G4dZP0-145" value="" style="rounded=0;whiteSpace=wrap;html=1;fillColor=#e1d5e7;strokeColor=#9673a6;" parent="1" vertex="1">
          <mxGeometry x="30" y="-1840" width="10" height="10" as="geometry" />
        </mxCell>
        <mxCell id="s8GAoEmhAFOMZ-G4dZP0-146" value="" style="rounded=0;whiteSpace=wrap;html=1;fillColor=#e1d5e7;strokeColor=#9673a6;" parent="1" vertex="1">
          <mxGeometry x="40" y="-1840" width="10" height="10" as="geometry" />
        </mxCell>
        <mxCell id="s8GAoEmhAFOMZ-G4dZP0-147" value="" style="rounded=0;whiteSpace=wrap;html=1;fillColor=#e1d5e7;strokeColor=#9673a6;" parent="1" vertex="1">
          <mxGeometry x="50" y="-1840" width="10" height="10" as="geometry" />
        </mxCell>
        <mxCell id="s8GAoEmhAFOMZ-G4dZP0-148" value="" style="rounded=0;whiteSpace=wrap;html=1;fillColor=#e1d5e7;strokeColor=#9673a6;" parent="1" vertex="1">
          <mxGeometry x="60" y="-1840" width="10" height="10" as="geometry" />
        </mxCell>
        <mxCell id="s8GAoEmhAFOMZ-G4dZP0-149" value="" style="rounded=0;whiteSpace=wrap;html=1;fillColor=#e1d5e7;strokeColor=#9673a6;" parent="1" vertex="1">
          <mxGeometry x="70" y="-1840" width="10" height="10" as="geometry" />
        </mxCell>
        <mxCell id="s8GAoEmhAFOMZ-G4dZP0-150" value="" style="rounded=0;whiteSpace=wrap;html=1;fillColor=#e1d5e7;strokeColor=#9673a6;" parent="1" vertex="1">
          <mxGeometry y="-1830" width="10" height="10" as="geometry" />
        </mxCell>
        <mxCell id="s8GAoEmhAFOMZ-G4dZP0-151" value="" style="rounded=0;whiteSpace=wrap;html=1;fillColor=#e1d5e7;strokeColor=#9673a6;" parent="1" vertex="1">
          <mxGeometry x="10" y="-1830" width="10" height="10" as="geometry" />
        </mxCell>
        <mxCell id="s8GAoEmhAFOMZ-G4dZP0-152" value="" style="rounded=0;whiteSpace=wrap;html=1;fillColor=#e1d5e7;strokeColor=#9673a6;" parent="1" vertex="1">
          <mxGeometry x="20" y="-1830" width="10" height="10" as="geometry" />
        </mxCell>
        <mxCell id="s8GAoEmhAFOMZ-G4dZP0-153" value="" style="rounded=0;whiteSpace=wrap;html=1;fillColor=#e1d5e7;strokeColor=#9673a6;" parent="1" vertex="1">
          <mxGeometry x="30" y="-1830" width="10" height="10" as="geometry" />
        </mxCell>
        <mxCell id="s8GAoEmhAFOMZ-G4dZP0-154" value="" style="rounded=0;whiteSpace=wrap;html=1;fillColor=#e1d5e7;strokeColor=#9673a6;" parent="1" vertex="1">
          <mxGeometry x="40" y="-1830" width="10" height="10" as="geometry" />
        </mxCell>
        <mxCell id="s8GAoEmhAFOMZ-G4dZP0-155" value="" style="rounded=0;whiteSpace=wrap;html=1;fillColor=#e1d5e7;strokeColor=#9673a6;" parent="1" vertex="1">
          <mxGeometry x="50" y="-1830" width="10" height="10" as="geometry" />
        </mxCell>
        <mxCell id="s8GAoEmhAFOMZ-G4dZP0-156" value="" style="rounded=0;whiteSpace=wrap;html=1;fillColor=#e1d5e7;strokeColor=#9673a6;" parent="1" vertex="1">
          <mxGeometry x="60" y="-1830" width="10" height="10" as="geometry" />
        </mxCell>
        <mxCell id="s8GAoEmhAFOMZ-G4dZP0-157" value="" style="rounded=0;whiteSpace=wrap;html=1;fillColor=#e1d5e7;strokeColor=#9673a6;" parent="1" vertex="1">
          <mxGeometry x="70" y="-1830" width="10" height="10" as="geometry" />
        </mxCell>
        <mxCell id="s8GAoEmhAFOMZ-G4dZP0-158" value="" style="rounded=0;whiteSpace=wrap;html=1;fillColor=#e1d5e7;strokeColor=#9673a6;" parent="1" vertex="1">
          <mxGeometry y="-1820" width="10" height="10" as="geometry" />
        </mxCell>
        <mxCell id="s8GAoEmhAFOMZ-G4dZP0-159" value="" style="rounded=0;whiteSpace=wrap;html=1;fillColor=#e1d5e7;strokeColor=#9673a6;" parent="1" vertex="1">
          <mxGeometry x="10" y="-1820" width="10" height="10" as="geometry" />
        </mxCell>
        <mxCell id="s8GAoEmhAFOMZ-G4dZP0-160" value="" style="rounded=0;whiteSpace=wrap;html=1;fillColor=#e1d5e7;strokeColor=#9673a6;" parent="1" vertex="1">
          <mxGeometry x="20" y="-1820" width="10" height="10" as="geometry" />
        </mxCell>
        <mxCell id="s8GAoEmhAFOMZ-G4dZP0-161" value="" style="rounded=0;whiteSpace=wrap;html=1;fillColor=#e1d5e7;strokeColor=#9673a6;" parent="1" vertex="1">
          <mxGeometry x="30" y="-1820" width="10" height="10" as="geometry" />
        </mxCell>
        <mxCell id="s8GAoEmhAFOMZ-G4dZP0-162" value="" style="rounded=0;whiteSpace=wrap;html=1;fillColor=#e1d5e7;strokeColor=#9673a6;" parent="1" vertex="1">
          <mxGeometry x="40" y="-1820" width="10" height="10" as="geometry" />
        </mxCell>
        <mxCell id="s8GAoEmhAFOMZ-G4dZP0-163" value="" style="rounded=0;whiteSpace=wrap;html=1;fillColor=#e1d5e7;strokeColor=#9673a6;" parent="1" vertex="1">
          <mxGeometry x="50" y="-1820" width="10" height="10" as="geometry" />
        </mxCell>
        <mxCell id="s8GAoEmhAFOMZ-G4dZP0-164" value="" style="rounded=0;whiteSpace=wrap;html=1;fillColor=#e1d5e7;strokeColor=#9673a6;" parent="1" vertex="1">
          <mxGeometry x="60" y="-1820" width="10" height="10" as="geometry" />
        </mxCell>
        <mxCell id="s8GAoEmhAFOMZ-G4dZP0-165" value="" style="rounded=0;whiteSpace=wrap;html=1;fillColor=#e1d5e7;strokeColor=#9673a6;" parent="1" vertex="1">
          <mxGeometry x="70" y="-1820" width="10" height="10" as="geometry" />
        </mxCell>
        <mxCell id="s8GAoEmhAFOMZ-G4dZP0-166" value="" style="rounded=0;whiteSpace=wrap;html=1;fillColor=#e1d5e7;strokeColor=#9673a6;" parent="1" vertex="1">
          <mxGeometry y="-1810" width="10" height="10" as="geometry" />
        </mxCell>
        <mxCell id="s8GAoEmhAFOMZ-G4dZP0-167" value="" style="rounded=0;whiteSpace=wrap;html=1;fillColor=#e1d5e7;strokeColor=#9673a6;" parent="1" vertex="1">
          <mxGeometry x="10" y="-1810" width="10" height="10" as="geometry" />
        </mxCell>
        <mxCell id="s8GAoEmhAFOMZ-G4dZP0-168" value="" style="rounded=0;whiteSpace=wrap;html=1;fillColor=#e1d5e7;strokeColor=#9673a6;" parent="1" vertex="1">
          <mxGeometry x="20" y="-1810" width="10" height="10" as="geometry" />
        </mxCell>
        <mxCell id="s8GAoEmhAFOMZ-G4dZP0-169" value="" style="rounded=0;whiteSpace=wrap;html=1;fillColor=#e1d5e7;strokeColor=#9673a6;" parent="1" vertex="1">
          <mxGeometry x="30" y="-1810" width="10" height="10" as="geometry" />
        </mxCell>
        <mxCell id="s8GAoEmhAFOMZ-G4dZP0-170" value="" style="rounded=0;whiteSpace=wrap;html=1;fillColor=#e1d5e7;strokeColor=#9673a6;" parent="1" vertex="1">
          <mxGeometry x="40" y="-1810" width="10" height="10" as="geometry" />
        </mxCell>
        <mxCell id="s8GAoEmhAFOMZ-G4dZP0-171" value="" style="rounded=0;whiteSpace=wrap;html=1;fillColor=#e1d5e7;strokeColor=#9673a6;" parent="1" vertex="1">
          <mxGeometry x="50" y="-1810" width="10" height="10" as="geometry" />
        </mxCell>
        <mxCell id="s8GAoEmhAFOMZ-G4dZP0-172" value="" style="rounded=0;whiteSpace=wrap;html=1;fillColor=#e1d5e7;strokeColor=#9673a6;" parent="1" vertex="1">
          <mxGeometry x="60" y="-1810" width="10" height="10" as="geometry" />
        </mxCell>
        <mxCell id="s8GAoEmhAFOMZ-G4dZP0-173" value="" style="rounded=0;whiteSpace=wrap;html=1;fillColor=#e1d5e7;strokeColor=#9673a6;" parent="1" vertex="1">
          <mxGeometry x="70" y="-1810" width="10" height="10" as="geometry" />
        </mxCell>
        <mxCell id="s8GAoEmhAFOMZ-G4dZP0-174" value="" style="rounded=0;whiteSpace=wrap;html=1;fillColor=#e1d5e7;strokeColor=#9673a6;" parent="1" vertex="1">
          <mxGeometry y="-1800" width="10" height="10" as="geometry" />
        </mxCell>
        <mxCell id="s8GAoEmhAFOMZ-G4dZP0-175" value="" style="rounded=0;whiteSpace=wrap;html=1;fillColor=#e1d5e7;strokeColor=#9673a6;" parent="1" vertex="1">
          <mxGeometry x="10" y="-1800" width="10" height="10" as="geometry" />
        </mxCell>
        <mxCell id="s8GAoEmhAFOMZ-G4dZP0-176" value="" style="rounded=0;whiteSpace=wrap;html=1;fillColor=#e1d5e7;strokeColor=#9673a6;" parent="1" vertex="1">
          <mxGeometry x="20" y="-1800" width="10" height="10" as="geometry" />
        </mxCell>
        <mxCell id="s8GAoEmhAFOMZ-G4dZP0-177" value="" style="rounded=0;whiteSpace=wrap;html=1;fillColor=#e1d5e7;strokeColor=#9673a6;" parent="1" vertex="1">
          <mxGeometry x="30" y="-1800" width="10" height="10" as="geometry" />
        </mxCell>
        <mxCell id="s8GAoEmhAFOMZ-G4dZP0-178" value="" style="rounded=0;whiteSpace=wrap;html=1;fillColor=#e1d5e7;strokeColor=#9673a6;" parent="1" vertex="1">
          <mxGeometry x="40" y="-1800" width="10" height="10" as="geometry" />
        </mxCell>
        <mxCell id="s8GAoEmhAFOMZ-G4dZP0-179" value="" style="rounded=0;whiteSpace=wrap;html=1;fillColor=#e1d5e7;strokeColor=#9673a6;" parent="1" vertex="1">
          <mxGeometry x="50" y="-1800" width="10" height="10" as="geometry" />
        </mxCell>
        <mxCell id="s8GAoEmhAFOMZ-G4dZP0-180" value="" style="rounded=0;whiteSpace=wrap;html=1;fillColor=#e1d5e7;strokeColor=#9673a6;" parent="1" vertex="1">
          <mxGeometry x="60" y="-1800" width="10" height="10" as="geometry" />
        </mxCell>
        <mxCell id="s8GAoEmhAFOMZ-G4dZP0-181" value="" style="rounded=0;whiteSpace=wrap;html=1;fillColor=#e1d5e7;strokeColor=#9673a6;" parent="1" vertex="1">
          <mxGeometry x="70" y="-1800" width="10" height="10" as="geometry" />
        </mxCell>
        <mxCell id="s8GAoEmhAFOMZ-G4dZP0-182" value="" style="rounded=0;whiteSpace=wrap;html=1;fillColor=#e1d5e7;strokeColor=#9673a6;" parent="1" vertex="1">
          <mxGeometry y="-1790" width="10" height="10" as="geometry" />
        </mxCell>
        <mxCell id="s8GAoEmhAFOMZ-G4dZP0-183" value="" style="rounded=0;whiteSpace=wrap;html=1;fillColor=#e1d5e7;strokeColor=#9673a6;" parent="1" vertex="1">
          <mxGeometry x="10" y="-1790" width="10" height="10" as="geometry" />
        </mxCell>
        <mxCell id="s8GAoEmhAFOMZ-G4dZP0-184" value="" style="rounded=0;whiteSpace=wrap;html=1;fillColor=#e1d5e7;strokeColor=#9673a6;" parent="1" vertex="1">
          <mxGeometry x="20" y="-1790" width="10" height="10" as="geometry" />
        </mxCell>
        <mxCell id="s8GAoEmhAFOMZ-G4dZP0-185" value="" style="rounded=0;whiteSpace=wrap;html=1;fillColor=#e1d5e7;strokeColor=#9673a6;" parent="1" vertex="1">
          <mxGeometry x="30" y="-1790" width="10" height="10" as="geometry" />
        </mxCell>
        <mxCell id="s8GAoEmhAFOMZ-G4dZP0-186" value="" style="rounded=0;whiteSpace=wrap;html=1;fillColor=#e1d5e7;strokeColor=#9673a6;" parent="1" vertex="1">
          <mxGeometry x="40" y="-1790" width="10" height="10" as="geometry" />
        </mxCell>
        <mxCell id="s8GAoEmhAFOMZ-G4dZP0-187" value="" style="rounded=0;whiteSpace=wrap;html=1;fillColor=#e1d5e7;strokeColor=#9673a6;" parent="1" vertex="1">
          <mxGeometry x="50" y="-1790" width="10" height="10" as="geometry" />
        </mxCell>
        <mxCell id="s8GAoEmhAFOMZ-G4dZP0-188" value="" style="rounded=0;whiteSpace=wrap;html=1;fillColor=#e1d5e7;strokeColor=#9673a6;" parent="1" vertex="1">
          <mxGeometry x="60" y="-1790" width="10" height="10" as="geometry" />
        </mxCell>
        <mxCell id="s8GAoEmhAFOMZ-G4dZP0-189" value="" style="rounded=0;whiteSpace=wrap;html=1;fillColor=#e1d5e7;strokeColor=#9673a6;" parent="1" vertex="1">
          <mxGeometry x="70" y="-1790" width="10" height="10" as="geometry" />
        </mxCell>
        <mxCell id="s8GAoEmhAFOMZ-G4dZP0-190" value="" style="rounded=0;whiteSpace=wrap;html=1;fillColor=#e1d5e7;strokeColor=#9673a6;" parent="1" vertex="1">
          <mxGeometry y="-1780" width="10" height="10" as="geometry" />
        </mxCell>
        <mxCell id="s8GAoEmhAFOMZ-G4dZP0-191" value="" style="rounded=0;whiteSpace=wrap;html=1;fillColor=#e1d5e7;strokeColor=#9673a6;" parent="1" vertex="1">
          <mxGeometry x="10" y="-1780" width="10" height="10" as="geometry" />
        </mxCell>
        <mxCell id="s8GAoEmhAFOMZ-G4dZP0-192" value="" style="rounded=0;whiteSpace=wrap;html=1;fillColor=#e1d5e7;strokeColor=#9673a6;" parent="1" vertex="1">
          <mxGeometry x="20" y="-1780" width="10" height="10" as="geometry" />
        </mxCell>
        <mxCell id="s8GAoEmhAFOMZ-G4dZP0-193" value="" style="rounded=0;whiteSpace=wrap;html=1;fillColor=#e1d5e7;strokeColor=#9673a6;" parent="1" vertex="1">
          <mxGeometry x="30" y="-1780" width="10" height="10" as="geometry" />
        </mxCell>
        <mxCell id="s8GAoEmhAFOMZ-G4dZP0-194" value="" style="rounded=0;whiteSpace=wrap;html=1;fillColor=#e1d5e7;strokeColor=#9673a6;" parent="1" vertex="1">
          <mxGeometry x="40" y="-1780" width="10" height="10" as="geometry" />
        </mxCell>
        <mxCell id="s8GAoEmhAFOMZ-G4dZP0-195" value="" style="rounded=0;whiteSpace=wrap;html=1;fillColor=#e1d5e7;strokeColor=#9673a6;" parent="1" vertex="1">
          <mxGeometry x="50" y="-1780" width="10" height="10" as="geometry" />
        </mxCell>
        <mxCell id="s8GAoEmhAFOMZ-G4dZP0-196" value="" style="rounded=0;whiteSpace=wrap;html=1;fillColor=#e1d5e7;strokeColor=#9673a6;" parent="1" vertex="1">
          <mxGeometry x="60" y="-1780" width="10" height="10" as="geometry" />
        </mxCell>
        <mxCell id="s8GAoEmhAFOMZ-G4dZP0-197" value="" style="rounded=0;whiteSpace=wrap;html=1;fillColor=#e1d5e7;strokeColor=#9673a6;" parent="1" vertex="1">
          <mxGeometry x="70" y="-1780" width="10" height="10" as="geometry" />
        </mxCell>
        <mxCell id="s8GAoEmhAFOMZ-G4dZP0-198" value="" style="rounded=0;whiteSpace=wrap;html=1;fillColor=#e1d5e7;strokeColor=#9673a6;" parent="1" vertex="1">
          <mxGeometry y="-1770" width="10" height="10" as="geometry" />
        </mxCell>
        <mxCell id="s8GAoEmhAFOMZ-G4dZP0-199" value="" style="rounded=0;whiteSpace=wrap;html=1;fillColor=#e1d5e7;strokeColor=#9673a6;" parent="1" vertex="1">
          <mxGeometry x="10" y="-1770" width="10" height="10" as="geometry" />
        </mxCell>
        <mxCell id="s8GAoEmhAFOMZ-G4dZP0-200" value="" style="rounded=0;whiteSpace=wrap;html=1;fillColor=#e1d5e7;strokeColor=#9673a6;" parent="1" vertex="1">
          <mxGeometry x="20" y="-1770" width="10" height="10" as="geometry" />
        </mxCell>
        <mxCell id="s8GAoEmhAFOMZ-G4dZP0-201" value="" style="rounded=0;whiteSpace=wrap;html=1;fillColor=#e1d5e7;strokeColor=#9673a6;" parent="1" vertex="1">
          <mxGeometry x="30" y="-1770" width="10" height="10" as="geometry" />
        </mxCell>
        <mxCell id="s8GAoEmhAFOMZ-G4dZP0-202" value="" style="rounded=0;whiteSpace=wrap;html=1;fillColor=#e1d5e7;strokeColor=#9673a6;" parent="1" vertex="1">
          <mxGeometry x="40" y="-1770" width="10" height="10" as="geometry" />
        </mxCell>
        <mxCell id="s8GAoEmhAFOMZ-G4dZP0-203" value="" style="rounded=0;whiteSpace=wrap;html=1;fillColor=#e1d5e7;strokeColor=#9673a6;" parent="1" vertex="1">
          <mxGeometry x="50" y="-1770" width="10" height="10" as="geometry" />
        </mxCell>
        <mxCell id="s8GAoEmhAFOMZ-G4dZP0-204" value="" style="rounded=0;whiteSpace=wrap;html=1;fillColor=#e1d5e7;strokeColor=#9673a6;" parent="1" vertex="1">
          <mxGeometry x="60" y="-1770" width="10" height="10" as="geometry" />
        </mxCell>
        <mxCell id="s8GAoEmhAFOMZ-G4dZP0-205" value="" style="rounded=0;whiteSpace=wrap;html=1;fillColor=#e1d5e7;strokeColor=#9673a6;" parent="1" vertex="1">
          <mxGeometry x="70" y="-1770" width="10" height="10" as="geometry" />
        </mxCell>
        <mxCell id="s8GAoEmhAFOMZ-G4dZP0-206" value="" style="rounded=0;whiteSpace=wrap;html=1;fillColor=#e1d5e7;strokeColor=#9673a6;" parent="1" vertex="1">
          <mxGeometry y="-1760" width="10" height="10" as="geometry" />
        </mxCell>
        <mxCell id="s8GAoEmhAFOMZ-G4dZP0-207" value="" style="rounded=0;whiteSpace=wrap;html=1;fillColor=#e1d5e7;strokeColor=#9673a6;" parent="1" vertex="1">
          <mxGeometry x="10" y="-1760" width="10" height="10" as="geometry" />
        </mxCell>
        <mxCell id="s8GAoEmhAFOMZ-G4dZP0-208" value="" style="rounded=0;whiteSpace=wrap;html=1;fillColor=#e1d5e7;strokeColor=#9673a6;" parent="1" vertex="1">
          <mxGeometry x="20" y="-1760" width="10" height="10" as="geometry" />
        </mxCell>
        <mxCell id="s8GAoEmhAFOMZ-G4dZP0-209" value="" style="rounded=0;whiteSpace=wrap;html=1;fillColor=#e1d5e7;strokeColor=#9673a6;" parent="1" vertex="1">
          <mxGeometry x="30" y="-1760" width="10" height="10" as="geometry" />
        </mxCell>
        <mxCell id="s8GAoEmhAFOMZ-G4dZP0-210" value="" style="rounded=0;whiteSpace=wrap;html=1;fillColor=#e1d5e7;strokeColor=#9673a6;" parent="1" vertex="1">
          <mxGeometry x="40" y="-1760" width="10" height="10" as="geometry" />
        </mxCell>
        <mxCell id="s8GAoEmhAFOMZ-G4dZP0-211" value="" style="rounded=0;whiteSpace=wrap;html=1;fillColor=#e1d5e7;strokeColor=#9673a6;" parent="1" vertex="1">
          <mxGeometry x="50" y="-1760" width="10" height="10" as="geometry" />
        </mxCell>
        <mxCell id="s8GAoEmhAFOMZ-G4dZP0-212" value="" style="rounded=0;whiteSpace=wrap;html=1;fillColor=#e1d5e7;strokeColor=#9673a6;" parent="1" vertex="1">
          <mxGeometry x="60" y="-1760" width="10" height="10" as="geometry" />
        </mxCell>
        <mxCell id="s8GAoEmhAFOMZ-G4dZP0-213" value="" style="rounded=0;whiteSpace=wrap;html=1;fillColor=#e1d5e7;strokeColor=#9673a6;" parent="1" vertex="1">
          <mxGeometry x="70" y="-1760" width="10" height="10" as="geometry" />
        </mxCell>
        <mxCell id="s8GAoEmhAFOMZ-G4dZP0-214" value="" style="rounded=0;whiteSpace=wrap;html=1;fillColor=#e1d5e7;strokeColor=#9673a6;" parent="1" vertex="1">
          <mxGeometry y="-1750" width="10" height="10" as="geometry" />
        </mxCell>
        <mxCell id="s8GAoEmhAFOMZ-G4dZP0-215" value="" style="rounded=0;whiteSpace=wrap;html=1;fillColor=#e1d5e7;strokeColor=#9673a6;" parent="1" vertex="1">
          <mxGeometry x="10" y="-1750" width="10" height="10" as="geometry" />
        </mxCell>
        <mxCell id="s8GAoEmhAFOMZ-G4dZP0-216" value="" style="rounded=0;whiteSpace=wrap;html=1;fillColor=#e1d5e7;strokeColor=#9673a6;" parent="1" vertex="1">
          <mxGeometry x="20" y="-1750" width="10" height="10" as="geometry" />
        </mxCell>
        <mxCell id="s8GAoEmhAFOMZ-G4dZP0-217" value="" style="rounded=0;whiteSpace=wrap;html=1;fillColor=#e1d5e7;strokeColor=#9673a6;" parent="1" vertex="1">
          <mxGeometry x="30" y="-1750" width="10" height="10" as="geometry" />
        </mxCell>
        <mxCell id="s8GAoEmhAFOMZ-G4dZP0-218" value="" style="rounded=0;whiteSpace=wrap;html=1;fillColor=#e1d5e7;strokeColor=#9673a6;" parent="1" vertex="1">
          <mxGeometry x="40" y="-1750" width="10" height="10" as="geometry" />
        </mxCell>
        <mxCell id="s8GAoEmhAFOMZ-G4dZP0-219" value="" style="rounded=0;whiteSpace=wrap;html=1;fillColor=#e1d5e7;strokeColor=#9673a6;" parent="1" vertex="1">
          <mxGeometry x="50" y="-1750" width="10" height="10" as="geometry" />
        </mxCell>
        <mxCell id="s8GAoEmhAFOMZ-G4dZP0-220" value="" style="rounded=0;whiteSpace=wrap;html=1;fillColor=#e1d5e7;strokeColor=#9673a6;" parent="1" vertex="1">
          <mxGeometry x="60" y="-1750" width="10" height="10" as="geometry" />
        </mxCell>
        <mxCell id="s8GAoEmhAFOMZ-G4dZP0-221" value="" style="rounded=0;whiteSpace=wrap;html=1;fillColor=#e1d5e7;strokeColor=#9673a6;" parent="1" vertex="1">
          <mxGeometry x="70" y="-1750" width="10" height="10" as="geometry" />
        </mxCell>
        <mxCell id="s8GAoEmhAFOMZ-G4dZP0-222" value="" style="rounded=0;whiteSpace=wrap;html=1;fillColor=#e1d5e7;strokeColor=#9673a6;" parent="1" vertex="1">
          <mxGeometry y="-1740" width="10" height="10" as="geometry" />
        </mxCell>
        <mxCell id="s8GAoEmhAFOMZ-G4dZP0-223" value="" style="rounded=0;whiteSpace=wrap;html=1;fillColor=#e1d5e7;strokeColor=#9673a6;" parent="1" vertex="1">
          <mxGeometry x="10" y="-1740" width="10" height="10" as="geometry" />
        </mxCell>
        <mxCell id="s8GAoEmhAFOMZ-G4dZP0-224" value="" style="rounded=0;whiteSpace=wrap;html=1;fillColor=#e1d5e7;strokeColor=#9673a6;" parent="1" vertex="1">
          <mxGeometry x="20" y="-1740" width="10" height="10" as="geometry" />
        </mxCell>
        <mxCell id="s8GAoEmhAFOMZ-G4dZP0-225" value="" style="rounded=0;whiteSpace=wrap;html=1;fillColor=#e1d5e7;strokeColor=#9673a6;" parent="1" vertex="1">
          <mxGeometry x="30" y="-1740" width="10" height="10" as="geometry" />
        </mxCell>
        <mxCell id="s8GAoEmhAFOMZ-G4dZP0-226" value="" style="rounded=0;whiteSpace=wrap;html=1;fillColor=#e1d5e7;strokeColor=#9673a6;" parent="1" vertex="1">
          <mxGeometry x="40" y="-1740" width="10" height="10" as="geometry" />
        </mxCell>
        <mxCell id="s8GAoEmhAFOMZ-G4dZP0-227" value="" style="rounded=0;whiteSpace=wrap;html=1;fillColor=#e1d5e7;strokeColor=#9673a6;" parent="1" vertex="1">
          <mxGeometry x="50" y="-1740" width="10" height="10" as="geometry" />
        </mxCell>
        <mxCell id="s8GAoEmhAFOMZ-G4dZP0-228" value="" style="rounded=0;whiteSpace=wrap;html=1;fillColor=#e1d5e7;strokeColor=#9673a6;" parent="1" vertex="1">
          <mxGeometry x="60" y="-1740" width="10" height="10" as="geometry" />
        </mxCell>
        <mxCell id="s8GAoEmhAFOMZ-G4dZP0-229" value="" style="rounded=0;whiteSpace=wrap;html=1;fillColor=#e1d5e7;strokeColor=#9673a6;" parent="1" vertex="1">
          <mxGeometry x="70" y="-1740" width="10" height="10" as="geometry" />
        </mxCell>
        <mxCell id="s8GAoEmhAFOMZ-G4dZP0-230" value="" style="rounded=0;whiteSpace=wrap;html=1;fillColor=#e1d5e7;strokeColor=#9673a6;" parent="1" vertex="1">
          <mxGeometry y="-1730" width="10" height="10" as="geometry" />
        </mxCell>
        <mxCell id="s8GAoEmhAFOMZ-G4dZP0-231" value="" style="rounded=0;whiteSpace=wrap;html=1;fillColor=#e1d5e7;strokeColor=#9673a6;" parent="1" vertex="1">
          <mxGeometry x="10" y="-1730" width="10" height="10" as="geometry" />
        </mxCell>
        <mxCell id="s8GAoEmhAFOMZ-G4dZP0-232" value="" style="rounded=0;whiteSpace=wrap;html=1;fillColor=#e1d5e7;strokeColor=#9673a6;" parent="1" vertex="1">
          <mxGeometry x="20" y="-1730" width="10" height="10" as="geometry" />
        </mxCell>
        <mxCell id="s8GAoEmhAFOMZ-G4dZP0-233" value="" style="rounded=0;whiteSpace=wrap;html=1;fillColor=#e1d5e7;strokeColor=#9673a6;" parent="1" vertex="1">
          <mxGeometry x="30" y="-1730" width="10" height="10" as="geometry" />
        </mxCell>
        <mxCell id="s8GAoEmhAFOMZ-G4dZP0-234" value="" style="rounded=0;whiteSpace=wrap;html=1;fillColor=#e1d5e7;strokeColor=#9673a6;" parent="1" vertex="1">
          <mxGeometry x="40" y="-1730" width="10" height="10" as="geometry" />
        </mxCell>
        <mxCell id="s8GAoEmhAFOMZ-G4dZP0-235" value="" style="rounded=0;whiteSpace=wrap;html=1;fillColor=#e1d5e7;strokeColor=#9673a6;" parent="1" vertex="1">
          <mxGeometry x="50" y="-1730" width="10" height="10" as="geometry" />
        </mxCell>
        <mxCell id="s8GAoEmhAFOMZ-G4dZP0-236" value="" style="rounded=0;whiteSpace=wrap;html=1;fillColor=#e1d5e7;strokeColor=#9673a6;" parent="1" vertex="1">
          <mxGeometry x="60" y="-1730" width="10" height="10" as="geometry" />
        </mxCell>
        <mxCell id="s8GAoEmhAFOMZ-G4dZP0-237" value="" style="rounded=0;whiteSpace=wrap;html=1;fillColor=#e1d5e7;strokeColor=#9673a6;" parent="1" vertex="1">
          <mxGeometry x="70" y="-1730" width="10" height="10" as="geometry" />
        </mxCell>
        <mxCell id="s8GAoEmhAFOMZ-G4dZP0-238" value="" style="rounded=0;whiteSpace=wrap;html=1;fillColor=#e1d5e7;strokeColor=#9673a6;" parent="1" vertex="1">
          <mxGeometry y="-1720" width="10" height="10" as="geometry" />
        </mxCell>
        <mxCell id="s8GAoEmhAFOMZ-G4dZP0-239" value="" style="rounded=0;whiteSpace=wrap;html=1;fillColor=#e1d5e7;strokeColor=#9673a6;" parent="1" vertex="1">
          <mxGeometry x="10" y="-1720" width="10" height="10" as="geometry" />
        </mxCell>
        <mxCell id="s8GAoEmhAFOMZ-G4dZP0-240" value="" style="rounded=0;whiteSpace=wrap;html=1;fillColor=#e1d5e7;strokeColor=#9673a6;" parent="1" vertex="1">
          <mxGeometry x="20" y="-1720" width="10" height="10" as="geometry" />
        </mxCell>
        <mxCell id="s8GAoEmhAFOMZ-G4dZP0-241" value="" style="rounded=0;whiteSpace=wrap;html=1;fillColor=#e1d5e7;strokeColor=#9673a6;" parent="1" vertex="1">
          <mxGeometry x="30" y="-1720" width="10" height="10" as="geometry" />
        </mxCell>
        <mxCell id="s8GAoEmhAFOMZ-G4dZP0-242" value="" style="rounded=0;whiteSpace=wrap;html=1;fillColor=#e1d5e7;strokeColor=#9673a6;" parent="1" vertex="1">
          <mxGeometry x="40" y="-1720" width="10" height="10" as="geometry" />
        </mxCell>
        <mxCell id="s8GAoEmhAFOMZ-G4dZP0-243" value="" style="rounded=0;whiteSpace=wrap;html=1;fillColor=#e1d5e7;strokeColor=#9673a6;" parent="1" vertex="1">
          <mxGeometry x="50" y="-1720" width="10" height="10" as="geometry" />
        </mxCell>
        <mxCell id="s8GAoEmhAFOMZ-G4dZP0-244" value="" style="rounded=0;whiteSpace=wrap;html=1;fillColor=#e1d5e7;strokeColor=#9673a6;" parent="1" vertex="1">
          <mxGeometry x="60" y="-1720" width="10" height="10" as="geometry" />
        </mxCell>
        <mxCell id="s8GAoEmhAFOMZ-G4dZP0-245" value="" style="rounded=0;whiteSpace=wrap;html=1;fillColor=#e1d5e7;strokeColor=#9673a6;" parent="1" vertex="1">
          <mxGeometry x="70" y="-1720" width="10" height="10" as="geometry" />
        </mxCell>
        <mxCell id="s8GAoEmhAFOMZ-G4dZP0-246" value="" style="rounded=0;whiteSpace=wrap;html=1;fillColor=#e1d5e7;strokeColor=#9673a6;" parent="1" vertex="1">
          <mxGeometry y="-1710" width="10" height="10" as="geometry" />
        </mxCell>
        <mxCell id="s8GAoEmhAFOMZ-G4dZP0-247" value="" style="rounded=0;whiteSpace=wrap;html=1;fillColor=#e1d5e7;strokeColor=#9673a6;" parent="1" vertex="1">
          <mxGeometry x="10" y="-1710" width="10" height="10" as="geometry" />
        </mxCell>
        <mxCell id="s8GAoEmhAFOMZ-G4dZP0-248" value="" style="rounded=0;whiteSpace=wrap;html=1;fillColor=#e1d5e7;strokeColor=#9673a6;" parent="1" vertex="1">
          <mxGeometry x="20" y="-1710" width="10" height="10" as="geometry" />
        </mxCell>
        <mxCell id="s8GAoEmhAFOMZ-G4dZP0-249" value="" style="rounded=0;whiteSpace=wrap;html=1;fillColor=#e1d5e7;strokeColor=#9673a6;" parent="1" vertex="1">
          <mxGeometry x="30" y="-1710" width="10" height="10" as="geometry" />
        </mxCell>
        <mxCell id="s8GAoEmhAFOMZ-G4dZP0-250" value="" style="rounded=0;whiteSpace=wrap;html=1;fillColor=#e1d5e7;strokeColor=#9673a6;" parent="1" vertex="1">
          <mxGeometry x="40" y="-1710" width="10" height="10" as="geometry" />
        </mxCell>
        <mxCell id="s8GAoEmhAFOMZ-G4dZP0-251" value="" style="rounded=0;whiteSpace=wrap;html=1;fillColor=#e1d5e7;strokeColor=#9673a6;" parent="1" vertex="1">
          <mxGeometry x="50" y="-1710" width="10" height="10" as="geometry" />
        </mxCell>
        <mxCell id="s8GAoEmhAFOMZ-G4dZP0-252" value="" style="rounded=0;whiteSpace=wrap;html=1;fillColor=#e1d5e7;strokeColor=#9673a6;" parent="1" vertex="1">
          <mxGeometry x="60" y="-1710" width="10" height="10" as="geometry" />
        </mxCell>
        <mxCell id="s8GAoEmhAFOMZ-G4dZP0-253" value="" style="rounded=0;whiteSpace=wrap;html=1;fillColor=#e1d5e7;strokeColor=#9673a6;" parent="1" vertex="1">
          <mxGeometry x="70" y="-1710" width="10" height="10" as="geometry" />
        </mxCell>
        <mxCell id="s8GAoEmhAFOMZ-G4dZP0-254" value="" style="rounded=0;whiteSpace=wrap;html=1;fillColor=#e1d5e7;strokeColor=#9673a6;" parent="1" vertex="1">
          <mxGeometry y="-1700" width="10" height="10" as="geometry" />
        </mxCell>
        <mxCell id="s8GAoEmhAFOMZ-G4dZP0-255" value="" style="rounded=0;whiteSpace=wrap;html=1;fillColor=#e1d5e7;strokeColor=#9673a6;" parent="1" vertex="1">
          <mxGeometry x="10" y="-1700" width="10" height="10" as="geometry" />
        </mxCell>
        <mxCell id="s8GAoEmhAFOMZ-G4dZP0-256" value="" style="rounded=0;whiteSpace=wrap;html=1;fillColor=#e1d5e7;strokeColor=#9673a6;" parent="1" vertex="1">
          <mxGeometry x="20" y="-1700" width="10" height="10" as="geometry" />
        </mxCell>
        <mxCell id="s8GAoEmhAFOMZ-G4dZP0-257" value="" style="rounded=0;whiteSpace=wrap;html=1;fillColor=#e1d5e7;strokeColor=#9673a6;" parent="1" vertex="1">
          <mxGeometry x="30" y="-1700" width="10" height="10" as="geometry" />
        </mxCell>
        <mxCell id="s8GAoEmhAFOMZ-G4dZP0-258" value="" style="rounded=0;whiteSpace=wrap;html=1;fillColor=#e1d5e7;strokeColor=#9673a6;" parent="1" vertex="1">
          <mxGeometry x="40" y="-1700" width="10" height="10" as="geometry" />
        </mxCell>
        <mxCell id="s8GAoEmhAFOMZ-G4dZP0-259" value="" style="rounded=0;whiteSpace=wrap;html=1;fillColor=#e1d5e7;strokeColor=#9673a6;" parent="1" vertex="1">
          <mxGeometry x="50" y="-1700" width="10" height="10" as="geometry" />
        </mxCell>
        <mxCell id="s8GAoEmhAFOMZ-G4dZP0-260" value="" style="rounded=0;whiteSpace=wrap;html=1;fillColor=#e1d5e7;strokeColor=#9673a6;" parent="1" vertex="1">
          <mxGeometry x="60" y="-1700" width="10" height="10" as="geometry" />
        </mxCell>
        <mxCell id="s8GAoEmhAFOMZ-G4dZP0-261" value="" style="rounded=0;whiteSpace=wrap;html=1;fillColor=#e1d5e7;strokeColor=#9673a6;" parent="1" vertex="1">
          <mxGeometry x="70" y="-1700" width="10" height="10" as="geometry" />
        </mxCell>
        <mxCell id="s8GAoEmhAFOMZ-G4dZP0-262" value="" style="rounded=0;whiteSpace=wrap;html=1;fillColor=#e1d5e7;strokeColor=#9673a6;" parent="1" vertex="1">
          <mxGeometry y="-1690" width="10" height="10" as="geometry" />
        </mxCell>
        <mxCell id="s8GAoEmhAFOMZ-G4dZP0-263" value="" style="rounded=0;whiteSpace=wrap;html=1;fillColor=#e1d5e7;strokeColor=#9673a6;" parent="1" vertex="1">
          <mxGeometry x="10" y="-1690" width="10" height="10" as="geometry" />
        </mxCell>
        <mxCell id="s8GAoEmhAFOMZ-G4dZP0-264" value="" style="rounded=0;whiteSpace=wrap;html=1;fillColor=#e1d5e7;strokeColor=#9673a6;" parent="1" vertex="1">
          <mxGeometry x="20" y="-1690" width="10" height="10" as="geometry" />
        </mxCell>
        <mxCell id="s8GAoEmhAFOMZ-G4dZP0-265" value="" style="rounded=0;whiteSpace=wrap;html=1;fillColor=#e1d5e7;strokeColor=#9673a6;" parent="1" vertex="1">
          <mxGeometry x="30" y="-1690" width="10" height="10" as="geometry" />
        </mxCell>
        <mxCell id="s8GAoEmhAFOMZ-G4dZP0-266" value="" style="rounded=0;whiteSpace=wrap;html=1;fillColor=#e1d5e7;strokeColor=#9673a6;" parent="1" vertex="1">
          <mxGeometry x="40" y="-1690" width="10" height="10" as="geometry" />
        </mxCell>
        <mxCell id="s8GAoEmhAFOMZ-G4dZP0-267" value="" style="rounded=0;whiteSpace=wrap;html=1;fillColor=#e1d5e7;strokeColor=#9673a6;" parent="1" vertex="1">
          <mxGeometry x="50" y="-1690" width="10" height="10" as="geometry" />
        </mxCell>
        <mxCell id="s8GAoEmhAFOMZ-G4dZP0-268" value="" style="rounded=0;whiteSpace=wrap;html=1;fillColor=#e1d5e7;strokeColor=#9673a6;" parent="1" vertex="1">
          <mxGeometry x="60" y="-1690" width="10" height="10" as="geometry" />
        </mxCell>
        <mxCell id="s8GAoEmhAFOMZ-G4dZP0-269" value="" style="rounded=0;whiteSpace=wrap;html=1;fillColor=#e1d5e7;strokeColor=#9673a6;" parent="1" vertex="1">
          <mxGeometry x="70" y="-1690" width="10" height="10" as="geometry" />
        </mxCell>
        <mxCell id="XNybpzqzRQGff8VEqiAb-1" value="&lt;font style=&quot;font-size: 24px;&quot;&gt;8x8&lt;/font&gt;" style="rounded=0;whiteSpace=wrap;html=1;fillColor=#d5e8d4;strokeColor=#82b366;" parent="1" vertex="1">
          <mxGeometry y="-1400" width="80" height="80" as="geometry" />
        </mxCell>
        <mxCell id="XNybpzqzRQGff8VEqiAb-2" value="&lt;font style=&quot;font-size: 24px;&quot;&gt;8x8&lt;/font&gt;" style="rounded=0;whiteSpace=wrap;html=1;fillColor=#d5e8d4;strokeColor=#82b366;" parent="1" vertex="1">
          <mxGeometry y="-1320" width="80" height="80" as="geometry" />
        </mxCell>
        <mxCell id="XNybpzqzRQGff8VEqiAb-3" value="&lt;font style=&quot;font-size: 24px;&quot;&gt;8x8&lt;/font&gt;" style="rounded=0;whiteSpace=wrap;html=1;fillColor=#d5e8d4;strokeColor=#82b366;" parent="1" vertex="1">
          <mxGeometry y="-1240" width="80" height="80" as="geometry" />
        </mxCell>
        <mxCell id="XNybpzqzRQGff8VEqiAb-4" value="&lt;font style=&quot;font-size: 24px;&quot;&gt;16x16&lt;/font&gt;" style="rounded=0;whiteSpace=wrap;html=1;fillColor=#dae8fc;strokeColor=#6c8ebf;" parent="1" vertex="1">
          <mxGeometry x="-480" y="-1680" width="160" height="160" as="geometry" />
        </mxCell>
        <mxCell id="XNybpzqzRQGff8VEqiAb-5" value="&lt;font style=&quot;font-size: 24px;&quot;&gt;16x16&lt;/font&gt;" style="rounded=0;whiteSpace=wrap;html=1;fillColor=#dae8fc;strokeColor=#6c8ebf;" parent="1" vertex="1">
          <mxGeometry x="-480" y="-1840" width="160" height="160" as="geometry" />
        </mxCell>
        <mxCell id="XNybpzqzRQGff8VEqiAb-6" value="&lt;font style=&quot;font-size: 24px;&quot;&gt;16x16&lt;/font&gt;" style="rounded=0;whiteSpace=wrap;html=1;fillColor=#dae8fc;strokeColor=#6c8ebf;" parent="1" vertex="1">
          <mxGeometry x="-320" y="-1680" width="160" height="160" as="geometry" />
        </mxCell>
        <mxCell id="XNybpzqzRQGff8VEqiAb-7" value="&lt;font style=&quot;font-size: 24px;&quot;&gt;16x16&lt;/font&gt;" style="rounded=0;whiteSpace=wrap;html=1;fillColor=#dae8fc;strokeColor=#6c8ebf;" parent="1" vertex="1">
          <mxGeometry x="-320" y="-1840" width="160" height="160" as="geometry" />
        </mxCell>
        <mxCell id="XNybpzqzRQGff8VEqiAb-8" value="&lt;font style=&quot;font-size: 24px;&quot;&gt;16x16&lt;/font&gt;" style="rounded=0;whiteSpace=wrap;html=1;fillColor=#dae8fc;strokeColor=#6c8ebf;" parent="1" vertex="1">
          <mxGeometry x="-160" y="-1680" width="160" height="160" as="geometry" />
        </mxCell>
        <mxCell id="XNybpzqzRQGff8VEqiAb-9" value="&lt;font style=&quot;font-size: 24px;&quot;&gt;16x16&lt;/font&gt;" style="rounded=0;whiteSpace=wrap;html=1;fillColor=#dae8fc;strokeColor=#6c8ebf;" parent="1" vertex="1">
          <mxGeometry x="-160" y="-1840" width="160" height="160" as="geometry" />
        </mxCell>
        <mxCell id="PHt269yvZsNhhaukJ3Xv-801" value="" style="rounded=0;whiteSpace=wrap;html=1;" vertex="1" parent="1">
          <mxGeometry x="-480" width="200" height="200" as="geometry" />
        </mxCell>
        <mxCell id="PHt269yvZsNhhaukJ3Xv-802" value="" style="rounded=0;whiteSpace=wrap;html=1;" vertex="1" parent="1">
          <mxGeometry x="-720" y="240" width="200" height="200" as="geometry" />
        </mxCell>
        <mxCell id="PHt269yvZsNhhaukJ3Xv-803" value="" style="rounded=0;whiteSpace=wrap;html=1;" vertex="1" parent="1">
          <mxGeometry x="-480" y="240" width="200" height="200" as="geometry" />
        </mxCell>
        <mxCell id="PHt269yvZsNhhaukJ3Xv-804" value="" style="rounded=0;whiteSpace=wrap;html=1;fillColor=#f9f7ed;strokeColor=#36393d;" vertex="1" parent="1">
          <mxGeometry x="-440" width="40" height="200" as="geometry" />
        </mxCell>
        <mxCell id="PHt269yvZsNhhaukJ3Xv-805" value="" style="rounded=0;whiteSpace=wrap;html=1;fillColor=#f9f7ed;strokeColor=#36393d;" vertex="1" parent="1">
          <mxGeometry x="-720" y="320" width="200" height="40" as="geometry" />
        </mxCell>
        <mxCell id="PHt269yvZsNhhaukJ3Xv-806" value="" style="rounded=0;whiteSpace=wrap;html=1;fillColor=none;strokeWidth=0;" vertex="1" parent="1">
          <mxGeometry x="-440" y="240" width="40" height="200" as="geometry" />
        </mxCell>
        <mxCell id="PHt269yvZsNhhaukJ3Xv-807" value="" style="rounded=0;whiteSpace=wrap;html=1;fillColor=none;strokeWidth=0;" vertex="1" parent="1">
          <mxGeometry x="-480" y="320" width="200" height="40" as="geometry" />
        </mxCell>
        <mxCell id="PHt269yvZsNhhaukJ3Xv-808" value="" style="rounded=0;whiteSpace=wrap;html=1;fillColor=#d5e8d4;strokeColor=#82b366;" vertex="1" parent="1">
          <mxGeometry x="-440" y="320" width="40" height="40" as="geometry" />
        </mxCell>
        <mxCell id="PHt269yvZsNhhaukJ3Xv-809" value="" style="rounded=0;whiteSpace=wrap;html=1;fillColor=#ffe6cc;strokeColor=#d79b00;" vertex="1" parent="1">
          <mxGeometry x="-440" y="80" width="40" height="20" as="geometry" />
        </mxCell>
        <mxCell id="PHt269yvZsNhhaukJ3Xv-810" value="" style="rounded=0;whiteSpace=wrap;html=1;fillColor=#dae8fc;strokeColor=#6c8ebf;" vertex="1" parent="1">
          <mxGeometry x="-660" y="320" width="20" height="40" as="geometry" />
        </mxCell>
        <mxCell id="PHt269yvZsNhhaukJ3Xv-1019" value="" style="rounded=0;whiteSpace=wrap;html=1;fillColor=#d5e8d4;strokeColor=#82b366;" vertex="1" parent="1">
          <mxGeometry y="120" width="160" height="160" as="geometry" />
        </mxCell>
        <mxCell id="PHt269yvZsNhhaukJ3Xv-1024" value="" style="rounded=0;whiteSpace=wrap;html=1;strokeWidth=0;" vertex="1" parent="1">
          <mxGeometry x="160" y="120" width="80" height="80" as="geometry" />
        </mxCell>
        <mxCell id="PHt269yvZsNhhaukJ3Xv-1025" value="" style="rounded=0;whiteSpace=wrap;html=1;strokeWidth=0;" vertex="1" parent="1">
          <mxGeometry x="240" y="120" width="80" height="80" as="geometry" />
        </mxCell>
        <mxCell id="PHt269yvZsNhhaukJ3Xv-1028" value="" style="rounded=0;whiteSpace=wrap;html=1;strokeWidth=0;" vertex="1" parent="1">
          <mxGeometry x="160" y="200" width="80" height="80" as="geometry" />
        </mxCell>
        <mxCell id="PHt269yvZsNhhaukJ3Xv-1029" value="" style="rounded=0;whiteSpace=wrap;html=1;strokeWidth=0;" vertex="1" parent="1">
          <mxGeometry x="240" y="200" width="80" height="80" as="geometry" />
        </mxCell>
        <mxCell id="PHt269yvZsNhhaukJ3Xv-1030" value="" style="rounded=0;whiteSpace=wrap;html=1;strokeWidth=0;" vertex="1" parent="1">
          <mxGeometry y="280" width="80" height="80" as="geometry" />
        </mxCell>
        <mxCell id="PHt269yvZsNhhaukJ3Xv-1031" value="" style="rounded=0;whiteSpace=wrap;html=1;strokeWidth=0;" vertex="1" parent="1">
          <mxGeometry x="80" y="280" width="80" height="80" as="geometry" />
        </mxCell>
        <mxCell id="PHt269yvZsNhhaukJ3Xv-1032" value="" style="rounded=0;whiteSpace=wrap;html=1;strokeWidth=0;" vertex="1" parent="1">
          <mxGeometry x="160" y="280" width="80" height="80" as="geometry" />
        </mxCell>
        <mxCell id="PHt269yvZsNhhaukJ3Xv-1033" value="" style="rounded=0;whiteSpace=wrap;html=1;strokeWidth=0;" vertex="1" parent="1">
          <mxGeometry x="240" y="280" width="80" height="80" as="geometry" />
        </mxCell>
        <mxCell id="PHt269yvZsNhhaukJ3Xv-1034" value="" style="rounded=0;whiteSpace=wrap;html=1;strokeWidth=0;" vertex="1" parent="1">
          <mxGeometry y="360" width="80" height="80" as="geometry" />
        </mxCell>
        <mxCell id="PHt269yvZsNhhaukJ3Xv-1035" value="" style="rounded=0;whiteSpace=wrap;html=1;strokeWidth=0;" vertex="1" parent="1">
          <mxGeometry x="80" y="360" width="80" height="80" as="geometry" />
        </mxCell>
        <mxCell id="PHt269yvZsNhhaukJ3Xv-1036" value="" style="rounded=0;whiteSpace=wrap;html=1;strokeWidth=0;" vertex="1" parent="1">
          <mxGeometry x="160" y="360" width="80" height="80" as="geometry" />
        </mxCell>
        <mxCell id="PHt269yvZsNhhaukJ3Xv-1037" value="" style="rounded=0;whiteSpace=wrap;html=1;strokeWidth=0;" vertex="1" parent="1">
          <mxGeometry x="240" y="360" width="80" height="80" as="geometry" />
        </mxCell>
        <mxCell id="PHt269yvZsNhhaukJ3Xv-1038" value="" style="rounded=0;whiteSpace=wrap;html=1;fillColor=#f5f5f5;fontColor=#333333;strokeColor=#666666;" vertex="1" parent="1">
          <mxGeometry width="320" height="80" as="geometry" />
        </mxCell>
        <mxCell id="PHt269yvZsNhhaukJ3Xv-1039" value="" style="rounded=0;whiteSpace=wrap;html=1;fillColor=#f5f5f5;fontColor=#333333;strokeColor=#666666;" vertex="1" parent="1">
          <mxGeometry width="320" height="20" as="geometry" />
        </mxCell>
        <mxCell id="PHt269yvZsNhhaukJ3Xv-1045" value="" style="rounded=0;whiteSpace=wrap;html=1;strokeWidth=1;fillColor=#ffe6cc;strokeColor=#d79b00;" vertex="1" parent="1">
          <mxGeometry y="20" width="160" height="20" as="geometry" />
        </mxCell>
        <mxCell id="PHt269yvZsNhhaukJ3Xv-1051" value="" style="rounded=0;whiteSpace=wrap;html=1;fillColor=#f5f5f5;fontColor=#333333;strokeColor=#666666;" vertex="1" parent="1">
          <mxGeometry x="-120" y="120" width="80" height="320" as="geometry" />
        </mxCell>
        <mxCell id="PHt269yvZsNhhaukJ3Xv-1052" value="" style="rounded=0;whiteSpace=wrap;html=1;fillColor=#dae8fc;strokeColor=#6c8ebf;" vertex="1" parent="1">
          <mxGeometry x="-80" y="120" width="20" height="130" as="geometry" />
        </mxCell>
        <mxCell id="PHt269yvZsNhhaukJ3Xv-1053" value="" style="rounded=0;whiteSpace=wrap;html=1;fillColor=#f5f5f5;fontColor=#333333;strokeColor=#666666;" vertex="1" parent="1">
          <mxGeometry x="-120" y="120" width="20" height="320" as="geometry" />
        </mxCell>
        <mxCell id="PHt269yvZsNhhaukJ3Xv-1054" value="" style="rounded=0;whiteSpace=wrap;html=1;fillColor=#f5f5f5;fontColor=#333333;strokeColor=#666666;" vertex="1" parent="1">
          <mxGeometry x="-100" y="120" width="20" height="320" as="geometry" />
        </mxCell>
        <mxCell id="PHt269yvZsNhhaukJ3Xv-1055" value="" style="rounded=0;whiteSpace=wrap;html=1;fillColor=#f5f5f5;fontColor=#333333;strokeColor=#666666;" vertex="1" parent="1">
          <mxGeometry x="-80" y="120" width="20" height="320" as="geometry" />
        </mxCell>
        <mxCell id="PHt269yvZsNhhaukJ3Xv-1056" value="" style="rounded=0;whiteSpace=wrap;html=1;strokeWidth=1;fillColor=#f5f5f5;fontColor=#333333;strokeColor=#666666;" vertex="1" parent="1">
          <mxGeometry y="20" width="320" height="20" as="geometry" />
        </mxCell>
        <mxCell id="PHt269yvZsNhhaukJ3Xv-1057" value="" style="rounded=0;whiteSpace=wrap;html=1;strokeWidth=1;fillColor=#f5f5f5;fontColor=#333333;strokeColor=#666666;" vertex="1" parent="1">
          <mxGeometry y="40" width="320" height="20" as="geometry" />
        </mxCell>
        <mxCell id="PHt269yvZsNhhaukJ3Xv-1058" value="" style="rounded=0;whiteSpace=wrap;html=1;fillColor=#dae8fc;strokeColor=#6c8ebf;" vertex="1" parent="1">
          <mxGeometry x="-100" y="120" width="20" height="160" as="geometry" />
        </mxCell>
        <mxCell id="PHt269yvZsNhhaukJ3Xv-1059" value="" style="rounded=0;whiteSpace=wrap;html=1;fillColor=#ffe6cc;strokeColor=#d79b00;" vertex="1" parent="1">
          <mxGeometry y="20" width="240" height="20" as="geometry" />
        </mxCell>
        <mxCell id="PHt269yvZsNhhaukJ3Xv-1060" value="" style="endArrow=none;dashed=1;html=1;rounded=0;entryX=0;entryY=0;entryDx=0;entryDy=0;" edge="1" parent="1" target="PHt269yvZsNhhaukJ3Xv-1019">
          <mxGeometry width="50" height="50" relative="1" as="geometry">
            <mxPoint x="-440" y="320" as="sourcePoint" />
            <mxPoint x="-390" y="270" as="targetPoint" />
          </mxGeometry>
        </mxCell>
        <mxCell id="PHt269yvZsNhhaukJ3Xv-1061" value="" style="endArrow=none;dashed=1;html=1;rounded=0;entryX=0;entryY=1;entryDx=0;entryDy=0;exitX=0.75;exitY=1;exitDx=0;exitDy=0;" edge="1" parent="1" source="PHt269yvZsNhhaukJ3Xv-808" target="PHt269yvZsNhhaukJ3Xv-1034">
          <mxGeometry width="50" height="50" relative="1" as="geometry">
            <mxPoint x="-414" y="610" as="sourcePoint" />
            <mxPoint x="26" y="410" as="targetPoint" />
          </mxGeometry>
        </mxCell>
        <mxCell id="PHt269yvZsNhhaukJ3Xv-1062" value="" style="rounded=0;whiteSpace=wrap;html=1;fillColor=none;" vertex="1" parent="1">
          <mxGeometry y="120" width="320" height="320" as="geometry" />
        </mxCell>
        <mxCell id="PHt269yvZsNhhaukJ3Xv-1063" value="" style="rounded=0;whiteSpace=wrap;html=1;fillColor=#d5e8d4;strokeColor=#82b366;" vertex="1" parent="1">
          <mxGeometry y="120" width="240" height="160" as="geometry" />
        </mxCell>
        <mxCell id="PHt269yvZsNhhaukJ3Xv-1064" value="&lt;font style=&quot;font-size: 24px;&quot;&gt;32x32&lt;/font&gt;" style="rounded=0;whiteSpace=wrap;html=1;fillColor=#ffe6cc;strokeColor=#d79b00;" vertex="1" parent="1">
          <mxGeometry x="520" y="120" width="320" height="320" as="geometry" />
        </mxCell>
        <mxCell id="PHt269yvZsNhhaukJ3Xv-1065" value="&lt;font style=&quot;font-size: 24px;&quot;&gt;16x16&lt;/font&gt;" style="rounded=0;whiteSpace=wrap;html=1;fillColor=#dae8fc;strokeColor=#6c8ebf;" vertex="1" parent="1">
          <mxGeometry x="840" y="120" width="160" height="160" as="geometry" />
        </mxCell>
        <mxCell id="PHt269yvZsNhhaukJ3Xv-1066" value="&lt;font style=&quot;font-size: 24px;&quot;&gt;16x16&lt;/font&gt;" style="rounded=0;whiteSpace=wrap;html=1;fillColor=#dae8fc;strokeColor=#6c8ebf;" vertex="1" parent="1">
          <mxGeometry x="840" y="280" width="160" height="160" as="geometry" />
        </mxCell>
        <mxCell id="PHt269yvZsNhhaukJ3Xv-1067" value="&lt;font style=&quot;font-size: 24px;&quot;&gt;8x8&lt;/font&gt;" style="rounded=0;whiteSpace=wrap;html=1;fillColor=#d5e8d4;strokeColor=#82b366;" vertex="1" parent="1">
          <mxGeometry x="1000" y="120" width="80" height="80" as="geometry" />
        </mxCell>
        <mxCell id="PHt269yvZsNhhaukJ3Xv-1068" value="" style="rounded=0;whiteSpace=wrap;html=1;fillColor=#e1d5e7;strokeColor=#9673a6;" vertex="1" parent="1">
          <mxGeometry x="1000" y="-80" width="10" height="10" as="geometry" />
        </mxCell>
        <mxCell id="PHt269yvZsNhhaukJ3Xv-1069" value="" style="rounded=0;whiteSpace=wrap;html=1;fillColor=#e1d5e7;strokeColor=#9673a6;" vertex="1" parent="1">
          <mxGeometry x="1010" y="-80" width="10" height="10" as="geometry" />
        </mxCell>
        <mxCell id="PHt269yvZsNhhaukJ3Xv-1070" value="" style="rounded=0;whiteSpace=wrap;html=1;fillColor=#e1d5e7;strokeColor=#9673a6;" vertex="1" parent="1">
          <mxGeometry x="1020" y="-80" width="10" height="10" as="geometry" />
        </mxCell>
        <mxCell id="PHt269yvZsNhhaukJ3Xv-1071" value="" style="rounded=0;whiteSpace=wrap;html=1;fillColor=#e1d5e7;strokeColor=#9673a6;" vertex="1" parent="1">
          <mxGeometry x="1030" y="-80" width="10" height="10" as="geometry" />
        </mxCell>
        <mxCell id="PHt269yvZsNhhaukJ3Xv-1072" value="" style="rounded=0;whiteSpace=wrap;html=1;fillColor=#e1d5e7;strokeColor=#9673a6;" vertex="1" parent="1">
          <mxGeometry x="1040" y="-80" width="10" height="10" as="geometry" />
        </mxCell>
        <mxCell id="PHt269yvZsNhhaukJ3Xv-1073" value="" style="rounded=0;whiteSpace=wrap;html=1;fillColor=#e1d5e7;strokeColor=#9673a6;" vertex="1" parent="1">
          <mxGeometry x="1050" y="-80" width="10" height="10" as="geometry" />
        </mxCell>
        <mxCell id="PHt269yvZsNhhaukJ3Xv-1074" value="" style="rounded=0;whiteSpace=wrap;html=1;fillColor=#e1d5e7;strokeColor=#9673a6;" vertex="1" parent="1">
          <mxGeometry x="1060" y="-80" width="10" height="10" as="geometry" />
        </mxCell>
        <mxCell id="PHt269yvZsNhhaukJ3Xv-1075" value="" style="rounded=0;whiteSpace=wrap;html=1;fillColor=#e1d5e7;strokeColor=#9673a6;" vertex="1" parent="1">
          <mxGeometry x="1070" y="-80" width="10" height="10" as="geometry" />
        </mxCell>
        <mxCell id="PHt269yvZsNhhaukJ3Xv-1076" value="" style="rounded=0;whiteSpace=wrap;html=1;fillColor=#e1d5e7;strokeColor=#9673a6;" vertex="1" parent="1">
          <mxGeometry x="1000" y="-70" width="10" height="10" as="geometry" />
        </mxCell>
        <mxCell id="PHt269yvZsNhhaukJ3Xv-1077" value="" style="rounded=0;whiteSpace=wrap;html=1;fillColor=#e1d5e7;strokeColor=#9673a6;" vertex="1" parent="1">
          <mxGeometry x="1010" y="-70" width="10" height="10" as="geometry" />
        </mxCell>
        <mxCell id="PHt269yvZsNhhaukJ3Xv-1078" value="" style="rounded=0;whiteSpace=wrap;html=1;fillColor=#e1d5e7;strokeColor=#9673a6;" vertex="1" parent="1">
          <mxGeometry x="1020" y="-70" width="10" height="10" as="geometry" />
        </mxCell>
        <mxCell id="PHt269yvZsNhhaukJ3Xv-1079" value="" style="rounded=0;whiteSpace=wrap;html=1;fillColor=#e1d5e7;strokeColor=#9673a6;" vertex="1" parent="1">
          <mxGeometry x="1030" y="-70" width="10" height="10" as="geometry" />
        </mxCell>
        <mxCell id="PHt269yvZsNhhaukJ3Xv-1080" value="" style="rounded=0;whiteSpace=wrap;html=1;fillColor=#e1d5e7;strokeColor=#9673a6;" vertex="1" parent="1">
          <mxGeometry x="1040" y="-70" width="10" height="10" as="geometry" />
        </mxCell>
        <mxCell id="PHt269yvZsNhhaukJ3Xv-1081" value="" style="rounded=0;whiteSpace=wrap;html=1;fillColor=#e1d5e7;strokeColor=#9673a6;" vertex="1" parent="1">
          <mxGeometry x="1050" y="-70" width="10" height="10" as="geometry" />
        </mxCell>
        <mxCell id="PHt269yvZsNhhaukJ3Xv-1082" value="" style="rounded=0;whiteSpace=wrap;html=1;fillColor=#e1d5e7;strokeColor=#9673a6;" vertex="1" parent="1">
          <mxGeometry x="1060" y="-70" width="10" height="10" as="geometry" />
        </mxCell>
        <mxCell id="PHt269yvZsNhhaukJ3Xv-1083" value="" style="rounded=0;whiteSpace=wrap;html=1;fillColor=#e1d5e7;strokeColor=#9673a6;" vertex="1" parent="1">
          <mxGeometry x="1070" y="-70" width="10" height="10" as="geometry" />
        </mxCell>
        <mxCell id="PHt269yvZsNhhaukJ3Xv-1084" value="" style="rounded=0;whiteSpace=wrap;html=1;fillColor=#e1d5e7;strokeColor=#9673a6;" vertex="1" parent="1">
          <mxGeometry x="1000" y="-60" width="10" height="10" as="geometry" />
        </mxCell>
        <mxCell id="PHt269yvZsNhhaukJ3Xv-1085" value="" style="rounded=0;whiteSpace=wrap;html=1;fillColor=#e1d5e7;strokeColor=#9673a6;" vertex="1" parent="1">
          <mxGeometry x="1010" y="-60" width="10" height="10" as="geometry" />
        </mxCell>
        <mxCell id="PHt269yvZsNhhaukJ3Xv-1086" value="" style="rounded=0;whiteSpace=wrap;html=1;fillColor=#e1d5e7;strokeColor=#9673a6;" vertex="1" parent="1">
          <mxGeometry x="1020" y="-60" width="10" height="10" as="geometry" />
        </mxCell>
        <mxCell id="PHt269yvZsNhhaukJ3Xv-1087" value="" style="rounded=0;whiteSpace=wrap;html=1;fillColor=#e1d5e7;strokeColor=#9673a6;" vertex="1" parent="1">
          <mxGeometry x="1030" y="-60" width="10" height="10" as="geometry" />
        </mxCell>
        <mxCell id="PHt269yvZsNhhaukJ3Xv-1088" value="" style="rounded=0;whiteSpace=wrap;html=1;fillColor=#e1d5e7;strokeColor=#9673a6;" vertex="1" parent="1">
          <mxGeometry x="1040" y="-60" width="10" height="10" as="geometry" />
        </mxCell>
        <mxCell id="PHt269yvZsNhhaukJ3Xv-1089" value="" style="rounded=0;whiteSpace=wrap;html=1;fillColor=#e1d5e7;strokeColor=#9673a6;" vertex="1" parent="1">
          <mxGeometry x="1050" y="-60" width="10" height="10" as="geometry" />
        </mxCell>
        <mxCell id="PHt269yvZsNhhaukJ3Xv-1090" value="" style="rounded=0;whiteSpace=wrap;html=1;fillColor=#e1d5e7;strokeColor=#9673a6;" vertex="1" parent="1">
          <mxGeometry x="1060" y="-60" width="10" height="10" as="geometry" />
        </mxCell>
        <mxCell id="PHt269yvZsNhhaukJ3Xv-1091" value="" style="rounded=0;whiteSpace=wrap;html=1;fillColor=#e1d5e7;strokeColor=#9673a6;" vertex="1" parent="1">
          <mxGeometry x="1070" y="-60" width="10" height="10" as="geometry" />
        </mxCell>
        <mxCell id="PHt269yvZsNhhaukJ3Xv-1092" value="" style="rounded=0;whiteSpace=wrap;html=1;fillColor=#e1d5e7;strokeColor=#9673a6;" vertex="1" parent="1">
          <mxGeometry x="1000" y="-50" width="10" height="10" as="geometry" />
        </mxCell>
        <mxCell id="PHt269yvZsNhhaukJ3Xv-1093" value="" style="rounded=0;whiteSpace=wrap;html=1;fillColor=#e1d5e7;strokeColor=#9673a6;" vertex="1" parent="1">
          <mxGeometry x="1010" y="-50" width="10" height="10" as="geometry" />
        </mxCell>
        <mxCell id="PHt269yvZsNhhaukJ3Xv-1094" value="" style="rounded=0;whiteSpace=wrap;html=1;fillColor=#e1d5e7;strokeColor=#9673a6;" vertex="1" parent="1">
          <mxGeometry x="1020" y="-50" width="10" height="10" as="geometry" />
        </mxCell>
        <mxCell id="PHt269yvZsNhhaukJ3Xv-1095" value="" style="rounded=0;whiteSpace=wrap;html=1;fillColor=#e1d5e7;strokeColor=#9673a6;" vertex="1" parent="1">
          <mxGeometry x="1030" y="-50" width="10" height="10" as="geometry" />
        </mxCell>
        <mxCell id="PHt269yvZsNhhaukJ3Xv-1096" value="" style="rounded=0;whiteSpace=wrap;html=1;fillColor=#e1d5e7;strokeColor=#9673a6;" vertex="1" parent="1">
          <mxGeometry x="1040" y="-50" width="10" height="10" as="geometry" />
        </mxCell>
        <mxCell id="PHt269yvZsNhhaukJ3Xv-1097" value="" style="rounded=0;whiteSpace=wrap;html=1;fillColor=#e1d5e7;strokeColor=#9673a6;" vertex="1" parent="1">
          <mxGeometry x="1050" y="-50" width="10" height="10" as="geometry" />
        </mxCell>
        <mxCell id="PHt269yvZsNhhaukJ3Xv-1098" value="" style="rounded=0;whiteSpace=wrap;html=1;fillColor=#e1d5e7;strokeColor=#9673a6;" vertex="1" parent="1">
          <mxGeometry x="1060" y="-50" width="10" height="10" as="geometry" />
        </mxCell>
        <mxCell id="PHt269yvZsNhhaukJ3Xv-1099" value="" style="rounded=0;whiteSpace=wrap;html=1;fillColor=#e1d5e7;strokeColor=#9673a6;" vertex="1" parent="1">
          <mxGeometry x="1070" y="-50" width="10" height="10" as="geometry" />
        </mxCell>
        <mxCell id="PHt269yvZsNhhaukJ3Xv-1100" value="" style="rounded=0;whiteSpace=wrap;html=1;fillColor=#e1d5e7;strokeColor=#9673a6;" vertex="1" parent="1">
          <mxGeometry x="1000" y="-40" width="10" height="10" as="geometry" />
        </mxCell>
        <mxCell id="PHt269yvZsNhhaukJ3Xv-1101" value="" style="rounded=0;whiteSpace=wrap;html=1;fillColor=#e1d5e7;strokeColor=#9673a6;" vertex="1" parent="1">
          <mxGeometry x="1010" y="-40" width="10" height="10" as="geometry" />
        </mxCell>
        <mxCell id="PHt269yvZsNhhaukJ3Xv-1102" value="" style="rounded=0;whiteSpace=wrap;html=1;fillColor=#e1d5e7;strokeColor=#9673a6;" vertex="1" parent="1">
          <mxGeometry x="1020" y="-40" width="10" height="10" as="geometry" />
        </mxCell>
        <mxCell id="PHt269yvZsNhhaukJ3Xv-1103" value="" style="rounded=0;whiteSpace=wrap;html=1;fillColor=#e1d5e7;strokeColor=#9673a6;" vertex="1" parent="1">
          <mxGeometry x="1030" y="-40" width="10" height="10" as="geometry" />
        </mxCell>
        <mxCell id="PHt269yvZsNhhaukJ3Xv-1104" value="" style="rounded=0;whiteSpace=wrap;html=1;fillColor=#e1d5e7;strokeColor=#9673a6;" vertex="1" parent="1">
          <mxGeometry x="1040" y="-40" width="10" height="10" as="geometry" />
        </mxCell>
        <mxCell id="PHt269yvZsNhhaukJ3Xv-1105" value="" style="rounded=0;whiteSpace=wrap;html=1;fillColor=#e1d5e7;strokeColor=#9673a6;" vertex="1" parent="1">
          <mxGeometry x="1050" y="-40" width="10" height="10" as="geometry" />
        </mxCell>
        <mxCell id="PHt269yvZsNhhaukJ3Xv-1106" value="" style="rounded=0;whiteSpace=wrap;html=1;fillColor=#e1d5e7;strokeColor=#9673a6;" vertex="1" parent="1">
          <mxGeometry x="1060" y="-40" width="10" height="10" as="geometry" />
        </mxCell>
        <mxCell id="PHt269yvZsNhhaukJ3Xv-1107" value="" style="rounded=0;whiteSpace=wrap;html=1;fillColor=#e1d5e7;strokeColor=#9673a6;" vertex="1" parent="1">
          <mxGeometry x="1070" y="-40" width="10" height="10" as="geometry" />
        </mxCell>
        <mxCell id="PHt269yvZsNhhaukJ3Xv-1108" value="" style="rounded=0;whiteSpace=wrap;html=1;fillColor=#e1d5e7;strokeColor=#9673a6;" vertex="1" parent="1">
          <mxGeometry x="1000" y="-30" width="10" height="10" as="geometry" />
        </mxCell>
        <mxCell id="PHt269yvZsNhhaukJ3Xv-1109" value="" style="rounded=0;whiteSpace=wrap;html=1;fillColor=#e1d5e7;strokeColor=#9673a6;" vertex="1" parent="1">
          <mxGeometry x="1010" y="-30" width="10" height="10" as="geometry" />
        </mxCell>
        <mxCell id="PHt269yvZsNhhaukJ3Xv-1110" value="" style="rounded=0;whiteSpace=wrap;html=1;fillColor=#e1d5e7;strokeColor=#9673a6;" vertex="1" parent="1">
          <mxGeometry x="1020" y="-30" width="10" height="10" as="geometry" />
        </mxCell>
        <mxCell id="PHt269yvZsNhhaukJ3Xv-1111" value="" style="rounded=0;whiteSpace=wrap;html=1;fillColor=#e1d5e7;strokeColor=#9673a6;" vertex="1" parent="1">
          <mxGeometry x="1030" y="-30" width="10" height="10" as="geometry" />
        </mxCell>
        <mxCell id="PHt269yvZsNhhaukJ3Xv-1112" value="" style="rounded=0;whiteSpace=wrap;html=1;fillColor=#e1d5e7;strokeColor=#9673a6;" vertex="1" parent="1">
          <mxGeometry x="1040" y="-30" width="10" height="10" as="geometry" />
        </mxCell>
        <mxCell id="PHt269yvZsNhhaukJ3Xv-1113" value="" style="rounded=0;whiteSpace=wrap;html=1;fillColor=#e1d5e7;strokeColor=#9673a6;" vertex="1" parent="1">
          <mxGeometry x="1050" y="-30" width="10" height="10" as="geometry" />
        </mxCell>
        <mxCell id="PHt269yvZsNhhaukJ3Xv-1114" value="" style="rounded=0;whiteSpace=wrap;html=1;fillColor=#e1d5e7;strokeColor=#9673a6;" vertex="1" parent="1">
          <mxGeometry x="1060" y="-30" width="10" height="10" as="geometry" />
        </mxCell>
        <mxCell id="PHt269yvZsNhhaukJ3Xv-1115" value="" style="rounded=0;whiteSpace=wrap;html=1;fillColor=#e1d5e7;strokeColor=#9673a6;" vertex="1" parent="1">
          <mxGeometry x="1070" y="-30" width="10" height="10" as="geometry" />
        </mxCell>
        <mxCell id="PHt269yvZsNhhaukJ3Xv-1116" value="" style="rounded=0;whiteSpace=wrap;html=1;fillColor=#e1d5e7;strokeColor=#9673a6;" vertex="1" parent="1">
          <mxGeometry x="1000" y="-20" width="10" height="10" as="geometry" />
        </mxCell>
        <mxCell id="PHt269yvZsNhhaukJ3Xv-1117" value="" style="rounded=0;whiteSpace=wrap;html=1;fillColor=#e1d5e7;strokeColor=#9673a6;" vertex="1" parent="1">
          <mxGeometry x="1010" y="-20" width="10" height="10" as="geometry" />
        </mxCell>
        <mxCell id="PHt269yvZsNhhaukJ3Xv-1118" value="" style="rounded=0;whiteSpace=wrap;html=1;fillColor=#e1d5e7;strokeColor=#9673a6;" vertex="1" parent="1">
          <mxGeometry x="1020" y="-20" width="10" height="10" as="geometry" />
        </mxCell>
        <mxCell id="PHt269yvZsNhhaukJ3Xv-1119" value="" style="rounded=0;whiteSpace=wrap;html=1;fillColor=#e1d5e7;strokeColor=#9673a6;" vertex="1" parent="1">
          <mxGeometry x="1030" y="-20" width="10" height="10" as="geometry" />
        </mxCell>
        <mxCell id="PHt269yvZsNhhaukJ3Xv-1120" value="" style="rounded=0;whiteSpace=wrap;html=1;fillColor=#e1d5e7;strokeColor=#9673a6;" vertex="1" parent="1">
          <mxGeometry x="1040" y="-20" width="10" height="10" as="geometry" />
        </mxCell>
        <mxCell id="PHt269yvZsNhhaukJ3Xv-1121" value="" style="rounded=0;whiteSpace=wrap;html=1;fillColor=#e1d5e7;strokeColor=#9673a6;" vertex="1" parent="1">
          <mxGeometry x="1050" y="-20" width="10" height="10" as="geometry" />
        </mxCell>
        <mxCell id="PHt269yvZsNhhaukJ3Xv-1122" value="" style="rounded=0;whiteSpace=wrap;html=1;fillColor=#e1d5e7;strokeColor=#9673a6;" vertex="1" parent="1">
          <mxGeometry x="1060" y="-20" width="10" height="10" as="geometry" />
        </mxCell>
        <mxCell id="PHt269yvZsNhhaukJ3Xv-1123" value="" style="rounded=0;whiteSpace=wrap;html=1;fillColor=#e1d5e7;strokeColor=#9673a6;" vertex="1" parent="1">
          <mxGeometry x="1070" y="-20" width="10" height="10" as="geometry" />
        </mxCell>
        <mxCell id="PHt269yvZsNhhaukJ3Xv-1124" value="" style="rounded=0;whiteSpace=wrap;html=1;fillColor=#e1d5e7;strokeColor=#9673a6;" vertex="1" parent="1">
          <mxGeometry x="1000" y="-10" width="10" height="10" as="geometry" />
        </mxCell>
        <mxCell id="PHt269yvZsNhhaukJ3Xv-1125" value="" style="rounded=0;whiteSpace=wrap;html=1;fillColor=#e1d5e7;strokeColor=#9673a6;" vertex="1" parent="1">
          <mxGeometry x="1010" y="-10" width="10" height="10" as="geometry" />
        </mxCell>
        <mxCell id="PHt269yvZsNhhaukJ3Xv-1126" value="" style="rounded=0;whiteSpace=wrap;html=1;fillColor=#e1d5e7;strokeColor=#9673a6;" vertex="1" parent="1">
          <mxGeometry x="1020" y="-10" width="10" height="10" as="geometry" />
        </mxCell>
        <mxCell id="PHt269yvZsNhhaukJ3Xv-1127" value="" style="rounded=0;whiteSpace=wrap;html=1;fillColor=#e1d5e7;strokeColor=#9673a6;" vertex="1" parent="1">
          <mxGeometry x="1030" y="-10" width="10" height="10" as="geometry" />
        </mxCell>
        <mxCell id="PHt269yvZsNhhaukJ3Xv-1128" value="" style="rounded=0;whiteSpace=wrap;html=1;fillColor=#e1d5e7;strokeColor=#9673a6;" vertex="1" parent="1">
          <mxGeometry x="1040" y="-10" width="10" height="10" as="geometry" />
        </mxCell>
        <mxCell id="PHt269yvZsNhhaukJ3Xv-1129" value="" style="rounded=0;whiteSpace=wrap;html=1;fillColor=#e1d5e7;strokeColor=#9673a6;" vertex="1" parent="1">
          <mxGeometry x="1050" y="-10" width="10" height="10" as="geometry" />
        </mxCell>
        <mxCell id="PHt269yvZsNhhaukJ3Xv-1130" value="" style="rounded=0;whiteSpace=wrap;html=1;fillColor=#e1d5e7;strokeColor=#9673a6;" vertex="1" parent="1">
          <mxGeometry x="1060" y="-10" width="10" height="10" as="geometry" />
        </mxCell>
        <mxCell id="PHt269yvZsNhhaukJ3Xv-1131" value="" style="rounded=0;whiteSpace=wrap;html=1;fillColor=#e1d5e7;strokeColor=#9673a6;" vertex="1" parent="1">
          <mxGeometry x="1070" y="-10" width="10" height="10" as="geometry" />
        </mxCell>
        <mxCell id="PHt269yvZsNhhaukJ3Xv-1132" value="" style="rounded=0;whiteSpace=wrap;html=1;fillColor=#e1d5e7;strokeColor=#9673a6;" vertex="1" parent="1">
          <mxGeometry x="1000" width="10" height="10" as="geometry" />
        </mxCell>
        <mxCell id="PHt269yvZsNhhaukJ3Xv-1133" value="" style="rounded=0;whiteSpace=wrap;html=1;fillColor=#e1d5e7;strokeColor=#9673a6;" vertex="1" parent="1">
          <mxGeometry x="1010" width="10" height="10" as="geometry" />
        </mxCell>
        <mxCell id="PHt269yvZsNhhaukJ3Xv-1134" value="" style="rounded=0;whiteSpace=wrap;html=1;fillColor=#e1d5e7;strokeColor=#9673a6;" vertex="1" parent="1">
          <mxGeometry x="1020" width="10" height="10" as="geometry" />
        </mxCell>
        <mxCell id="PHt269yvZsNhhaukJ3Xv-1135" value="" style="rounded=0;whiteSpace=wrap;html=1;fillColor=#e1d5e7;strokeColor=#9673a6;" vertex="1" parent="1">
          <mxGeometry x="1030" width="10" height="10" as="geometry" />
        </mxCell>
        <mxCell id="PHt269yvZsNhhaukJ3Xv-1136" value="" style="rounded=0;whiteSpace=wrap;html=1;fillColor=#e1d5e7;strokeColor=#9673a6;" vertex="1" parent="1">
          <mxGeometry x="1040" width="10" height="10" as="geometry" />
        </mxCell>
        <mxCell id="PHt269yvZsNhhaukJ3Xv-1137" value="" style="rounded=0;whiteSpace=wrap;html=1;fillColor=#e1d5e7;strokeColor=#9673a6;" vertex="1" parent="1">
          <mxGeometry x="1050" width="10" height="10" as="geometry" />
        </mxCell>
        <mxCell id="PHt269yvZsNhhaukJ3Xv-1138" value="" style="rounded=0;whiteSpace=wrap;html=1;fillColor=#e1d5e7;strokeColor=#9673a6;" vertex="1" parent="1">
          <mxGeometry x="1060" width="10" height="10" as="geometry" />
        </mxCell>
        <mxCell id="PHt269yvZsNhhaukJ3Xv-1139" value="" style="rounded=0;whiteSpace=wrap;html=1;fillColor=#e1d5e7;strokeColor=#9673a6;" vertex="1" parent="1">
          <mxGeometry x="1070" width="10" height="10" as="geometry" />
        </mxCell>
        <mxCell id="PHt269yvZsNhhaukJ3Xv-1140" value="" style="rounded=0;whiteSpace=wrap;html=1;fillColor=#e1d5e7;strokeColor=#9673a6;" vertex="1" parent="1">
          <mxGeometry x="1000" y="10" width="10" height="10" as="geometry" />
        </mxCell>
        <mxCell id="PHt269yvZsNhhaukJ3Xv-1141" value="" style="rounded=0;whiteSpace=wrap;html=1;fillColor=#e1d5e7;strokeColor=#9673a6;" vertex="1" parent="1">
          <mxGeometry x="1010" y="10" width="10" height="10" as="geometry" />
        </mxCell>
        <mxCell id="PHt269yvZsNhhaukJ3Xv-1142" value="" style="rounded=0;whiteSpace=wrap;html=1;fillColor=#e1d5e7;strokeColor=#9673a6;" vertex="1" parent="1">
          <mxGeometry x="1020" y="10" width="10" height="10" as="geometry" />
        </mxCell>
        <mxCell id="PHt269yvZsNhhaukJ3Xv-1143" value="" style="rounded=0;whiteSpace=wrap;html=1;fillColor=#e1d5e7;strokeColor=#9673a6;" vertex="1" parent="1">
          <mxGeometry x="1030" y="10" width="10" height="10" as="geometry" />
        </mxCell>
        <mxCell id="PHt269yvZsNhhaukJ3Xv-1144" value="" style="rounded=0;whiteSpace=wrap;html=1;fillColor=#e1d5e7;strokeColor=#9673a6;" vertex="1" parent="1">
          <mxGeometry x="1040" y="10" width="10" height="10" as="geometry" />
        </mxCell>
        <mxCell id="PHt269yvZsNhhaukJ3Xv-1145" value="" style="rounded=0;whiteSpace=wrap;html=1;fillColor=#e1d5e7;strokeColor=#9673a6;" vertex="1" parent="1">
          <mxGeometry x="1050" y="10" width="10" height="10" as="geometry" />
        </mxCell>
        <mxCell id="PHt269yvZsNhhaukJ3Xv-1146" value="" style="rounded=0;whiteSpace=wrap;html=1;fillColor=#e1d5e7;strokeColor=#9673a6;" vertex="1" parent="1">
          <mxGeometry x="1060" y="10" width="10" height="10" as="geometry" />
        </mxCell>
        <mxCell id="PHt269yvZsNhhaukJ3Xv-1147" value="" style="rounded=0;whiteSpace=wrap;html=1;fillColor=#e1d5e7;strokeColor=#9673a6;" vertex="1" parent="1">
          <mxGeometry x="1070" y="10" width="10" height="10" as="geometry" />
        </mxCell>
        <mxCell id="PHt269yvZsNhhaukJ3Xv-1148" value="" style="rounded=0;whiteSpace=wrap;html=1;fillColor=#e1d5e7;strokeColor=#9673a6;" vertex="1" parent="1">
          <mxGeometry x="1000" y="20" width="10" height="10" as="geometry" />
        </mxCell>
        <mxCell id="PHt269yvZsNhhaukJ3Xv-1149" value="" style="rounded=0;whiteSpace=wrap;html=1;fillColor=#e1d5e7;strokeColor=#9673a6;" vertex="1" parent="1">
          <mxGeometry x="1010" y="20" width="10" height="10" as="geometry" />
        </mxCell>
        <mxCell id="PHt269yvZsNhhaukJ3Xv-1150" value="" style="rounded=0;whiteSpace=wrap;html=1;fillColor=#e1d5e7;strokeColor=#9673a6;" vertex="1" parent="1">
          <mxGeometry x="1020" y="20" width="10" height="10" as="geometry" />
        </mxCell>
        <mxCell id="PHt269yvZsNhhaukJ3Xv-1151" value="" style="rounded=0;whiteSpace=wrap;html=1;fillColor=#e1d5e7;strokeColor=#9673a6;" vertex="1" parent="1">
          <mxGeometry x="1030" y="20" width="10" height="10" as="geometry" />
        </mxCell>
        <mxCell id="PHt269yvZsNhhaukJ3Xv-1152" value="" style="rounded=0;whiteSpace=wrap;html=1;fillColor=#e1d5e7;strokeColor=#9673a6;" vertex="1" parent="1">
          <mxGeometry x="1040" y="20" width="10" height="10" as="geometry" />
        </mxCell>
        <mxCell id="PHt269yvZsNhhaukJ3Xv-1153" value="" style="rounded=0;whiteSpace=wrap;html=1;fillColor=#e1d5e7;strokeColor=#9673a6;" vertex="1" parent="1">
          <mxGeometry x="1050" y="20" width="10" height="10" as="geometry" />
        </mxCell>
        <mxCell id="PHt269yvZsNhhaukJ3Xv-1154" value="" style="rounded=0;whiteSpace=wrap;html=1;fillColor=#e1d5e7;strokeColor=#9673a6;" vertex="1" parent="1">
          <mxGeometry x="1060" y="20" width="10" height="10" as="geometry" />
        </mxCell>
        <mxCell id="PHt269yvZsNhhaukJ3Xv-1155" value="" style="rounded=0;whiteSpace=wrap;html=1;fillColor=#e1d5e7;strokeColor=#9673a6;" vertex="1" parent="1">
          <mxGeometry x="1070" y="20" width="10" height="10" as="geometry" />
        </mxCell>
        <mxCell id="PHt269yvZsNhhaukJ3Xv-1156" value="" style="rounded=0;whiteSpace=wrap;html=1;fillColor=#e1d5e7;strokeColor=#9673a6;" vertex="1" parent="1">
          <mxGeometry x="1000" y="30" width="10" height="10" as="geometry" />
        </mxCell>
        <mxCell id="PHt269yvZsNhhaukJ3Xv-1157" value="" style="rounded=0;whiteSpace=wrap;html=1;fillColor=#e1d5e7;strokeColor=#9673a6;" vertex="1" parent="1">
          <mxGeometry x="1010" y="30" width="10" height="10" as="geometry" />
        </mxCell>
        <mxCell id="PHt269yvZsNhhaukJ3Xv-1158" value="" style="rounded=0;whiteSpace=wrap;html=1;fillColor=#e1d5e7;strokeColor=#9673a6;" vertex="1" parent="1">
          <mxGeometry x="1020" y="30" width="10" height="10" as="geometry" />
        </mxCell>
        <mxCell id="PHt269yvZsNhhaukJ3Xv-1159" value="" style="rounded=0;whiteSpace=wrap;html=1;fillColor=#e1d5e7;strokeColor=#9673a6;" vertex="1" parent="1">
          <mxGeometry x="1030" y="30" width="10" height="10" as="geometry" />
        </mxCell>
        <mxCell id="PHt269yvZsNhhaukJ3Xv-1160" value="" style="rounded=0;whiteSpace=wrap;html=1;fillColor=#e1d5e7;strokeColor=#9673a6;" vertex="1" parent="1">
          <mxGeometry x="1040" y="30" width="10" height="10" as="geometry" />
        </mxCell>
        <mxCell id="PHt269yvZsNhhaukJ3Xv-1161" value="" style="rounded=0;whiteSpace=wrap;html=1;fillColor=#e1d5e7;strokeColor=#9673a6;" vertex="1" parent="1">
          <mxGeometry x="1050" y="30" width="10" height="10" as="geometry" />
        </mxCell>
        <mxCell id="PHt269yvZsNhhaukJ3Xv-1162" value="" style="rounded=0;whiteSpace=wrap;html=1;fillColor=#e1d5e7;strokeColor=#9673a6;" vertex="1" parent="1">
          <mxGeometry x="1060" y="30" width="10" height="10" as="geometry" />
        </mxCell>
        <mxCell id="PHt269yvZsNhhaukJ3Xv-1163" value="" style="rounded=0;whiteSpace=wrap;html=1;fillColor=#e1d5e7;strokeColor=#9673a6;" vertex="1" parent="1">
          <mxGeometry x="1070" y="30" width="10" height="10" as="geometry" />
        </mxCell>
        <mxCell id="PHt269yvZsNhhaukJ3Xv-1164" value="" style="rounded=0;whiteSpace=wrap;html=1;fillColor=#e1d5e7;strokeColor=#9673a6;" vertex="1" parent="1">
          <mxGeometry x="1000" y="40" width="10" height="10" as="geometry" />
        </mxCell>
        <mxCell id="PHt269yvZsNhhaukJ3Xv-1165" value="" style="rounded=0;whiteSpace=wrap;html=1;fillColor=#e1d5e7;strokeColor=#9673a6;" vertex="1" parent="1">
          <mxGeometry x="1010" y="40" width="10" height="10" as="geometry" />
        </mxCell>
        <mxCell id="PHt269yvZsNhhaukJ3Xv-1166" value="" style="rounded=0;whiteSpace=wrap;html=1;fillColor=#e1d5e7;strokeColor=#9673a6;" vertex="1" parent="1">
          <mxGeometry x="1020" y="40" width="10" height="10" as="geometry" />
        </mxCell>
        <mxCell id="PHt269yvZsNhhaukJ3Xv-1167" value="" style="rounded=0;whiteSpace=wrap;html=1;fillColor=#e1d5e7;strokeColor=#9673a6;" vertex="1" parent="1">
          <mxGeometry x="1030" y="40" width="10" height="10" as="geometry" />
        </mxCell>
        <mxCell id="PHt269yvZsNhhaukJ3Xv-1168" value="" style="rounded=0;whiteSpace=wrap;html=1;fillColor=#e1d5e7;strokeColor=#9673a6;" vertex="1" parent="1">
          <mxGeometry x="1040" y="40" width="10" height="10" as="geometry" />
        </mxCell>
        <mxCell id="PHt269yvZsNhhaukJ3Xv-1169" value="" style="rounded=0;whiteSpace=wrap;html=1;fillColor=#e1d5e7;strokeColor=#9673a6;" vertex="1" parent="1">
          <mxGeometry x="1050" y="40" width="10" height="10" as="geometry" />
        </mxCell>
        <mxCell id="PHt269yvZsNhhaukJ3Xv-1170" value="" style="rounded=0;whiteSpace=wrap;html=1;fillColor=#e1d5e7;strokeColor=#9673a6;" vertex="1" parent="1">
          <mxGeometry x="1060" y="40" width="10" height="10" as="geometry" />
        </mxCell>
        <mxCell id="PHt269yvZsNhhaukJ3Xv-1171" value="" style="rounded=0;whiteSpace=wrap;html=1;fillColor=#e1d5e7;strokeColor=#9673a6;" vertex="1" parent="1">
          <mxGeometry x="1070" y="40" width="10" height="10" as="geometry" />
        </mxCell>
        <mxCell id="PHt269yvZsNhhaukJ3Xv-1172" value="" style="rounded=0;whiteSpace=wrap;html=1;fillColor=#e1d5e7;strokeColor=#9673a6;" vertex="1" parent="1">
          <mxGeometry x="1000" y="50" width="10" height="10" as="geometry" />
        </mxCell>
        <mxCell id="PHt269yvZsNhhaukJ3Xv-1173" value="" style="rounded=0;whiteSpace=wrap;html=1;fillColor=#e1d5e7;strokeColor=#9673a6;" vertex="1" parent="1">
          <mxGeometry x="1010" y="50" width="10" height="10" as="geometry" />
        </mxCell>
        <mxCell id="PHt269yvZsNhhaukJ3Xv-1174" value="" style="rounded=0;whiteSpace=wrap;html=1;fillColor=#e1d5e7;strokeColor=#9673a6;" vertex="1" parent="1">
          <mxGeometry x="1020" y="50" width="10" height="10" as="geometry" />
        </mxCell>
        <mxCell id="PHt269yvZsNhhaukJ3Xv-1175" value="" style="rounded=0;whiteSpace=wrap;html=1;fillColor=#e1d5e7;strokeColor=#9673a6;" vertex="1" parent="1">
          <mxGeometry x="1030" y="50" width="10" height="10" as="geometry" />
        </mxCell>
        <mxCell id="PHt269yvZsNhhaukJ3Xv-1176" value="" style="rounded=0;whiteSpace=wrap;html=1;fillColor=#e1d5e7;strokeColor=#9673a6;" vertex="1" parent="1">
          <mxGeometry x="1040" y="50" width="10" height="10" as="geometry" />
        </mxCell>
        <mxCell id="PHt269yvZsNhhaukJ3Xv-1177" value="" style="rounded=0;whiteSpace=wrap;html=1;fillColor=#e1d5e7;strokeColor=#9673a6;" vertex="1" parent="1">
          <mxGeometry x="1050" y="50" width="10" height="10" as="geometry" />
        </mxCell>
        <mxCell id="PHt269yvZsNhhaukJ3Xv-1178" value="" style="rounded=0;whiteSpace=wrap;html=1;fillColor=#e1d5e7;strokeColor=#9673a6;" vertex="1" parent="1">
          <mxGeometry x="1060" y="50" width="10" height="10" as="geometry" />
        </mxCell>
        <mxCell id="PHt269yvZsNhhaukJ3Xv-1179" value="" style="rounded=0;whiteSpace=wrap;html=1;fillColor=#e1d5e7;strokeColor=#9673a6;" vertex="1" parent="1">
          <mxGeometry x="1070" y="50" width="10" height="10" as="geometry" />
        </mxCell>
        <mxCell id="PHt269yvZsNhhaukJ3Xv-1180" value="" style="rounded=0;whiteSpace=wrap;html=1;fillColor=#e1d5e7;strokeColor=#9673a6;" vertex="1" parent="1">
          <mxGeometry x="1000" y="60" width="10" height="10" as="geometry" />
        </mxCell>
        <mxCell id="PHt269yvZsNhhaukJ3Xv-1181" value="" style="rounded=0;whiteSpace=wrap;html=1;fillColor=#e1d5e7;strokeColor=#9673a6;" vertex="1" parent="1">
          <mxGeometry x="1010" y="60" width="10" height="10" as="geometry" />
        </mxCell>
        <mxCell id="PHt269yvZsNhhaukJ3Xv-1182" value="" style="rounded=0;whiteSpace=wrap;html=1;fillColor=#e1d5e7;strokeColor=#9673a6;" vertex="1" parent="1">
          <mxGeometry x="1020" y="60" width="10" height="10" as="geometry" />
        </mxCell>
        <mxCell id="PHt269yvZsNhhaukJ3Xv-1183" value="" style="rounded=0;whiteSpace=wrap;html=1;fillColor=#e1d5e7;strokeColor=#9673a6;" vertex="1" parent="1">
          <mxGeometry x="1030" y="60" width="10" height="10" as="geometry" />
        </mxCell>
        <mxCell id="PHt269yvZsNhhaukJ3Xv-1184" value="" style="rounded=0;whiteSpace=wrap;html=1;fillColor=#e1d5e7;strokeColor=#9673a6;" vertex="1" parent="1">
          <mxGeometry x="1040" y="60" width="10" height="10" as="geometry" />
        </mxCell>
        <mxCell id="PHt269yvZsNhhaukJ3Xv-1185" value="" style="rounded=0;whiteSpace=wrap;html=1;fillColor=#e1d5e7;strokeColor=#9673a6;" vertex="1" parent="1">
          <mxGeometry x="1050" y="60" width="10" height="10" as="geometry" />
        </mxCell>
        <mxCell id="PHt269yvZsNhhaukJ3Xv-1186" value="" style="rounded=0;whiteSpace=wrap;html=1;fillColor=#e1d5e7;strokeColor=#9673a6;" vertex="1" parent="1">
          <mxGeometry x="1060" y="60" width="10" height="10" as="geometry" />
        </mxCell>
        <mxCell id="PHt269yvZsNhhaukJ3Xv-1187" value="" style="rounded=0;whiteSpace=wrap;html=1;fillColor=#e1d5e7;strokeColor=#9673a6;" vertex="1" parent="1">
          <mxGeometry x="1070" y="60" width="10" height="10" as="geometry" />
        </mxCell>
        <mxCell id="PHt269yvZsNhhaukJ3Xv-1188" value="" style="rounded=0;whiteSpace=wrap;html=1;fillColor=#e1d5e7;strokeColor=#9673a6;" vertex="1" parent="1">
          <mxGeometry x="1000" y="70" width="10" height="10" as="geometry" />
        </mxCell>
        <mxCell id="PHt269yvZsNhhaukJ3Xv-1189" value="" style="rounded=0;whiteSpace=wrap;html=1;fillColor=#e1d5e7;strokeColor=#9673a6;" vertex="1" parent="1">
          <mxGeometry x="1010" y="70" width="10" height="10" as="geometry" />
        </mxCell>
        <mxCell id="PHt269yvZsNhhaukJ3Xv-1190" value="" style="rounded=0;whiteSpace=wrap;html=1;fillColor=#e1d5e7;strokeColor=#9673a6;" vertex="1" parent="1">
          <mxGeometry x="1020" y="70" width="10" height="10" as="geometry" />
        </mxCell>
        <mxCell id="PHt269yvZsNhhaukJ3Xv-1191" value="" style="rounded=0;whiteSpace=wrap;html=1;fillColor=#e1d5e7;strokeColor=#9673a6;" vertex="1" parent="1">
          <mxGeometry x="1030" y="70" width="10" height="10" as="geometry" />
        </mxCell>
        <mxCell id="PHt269yvZsNhhaukJ3Xv-1192" value="" style="rounded=0;whiteSpace=wrap;html=1;fillColor=#e1d5e7;strokeColor=#9673a6;" vertex="1" parent="1">
          <mxGeometry x="1040" y="70" width="10" height="10" as="geometry" />
        </mxCell>
        <mxCell id="PHt269yvZsNhhaukJ3Xv-1193" value="" style="rounded=0;whiteSpace=wrap;html=1;fillColor=#e1d5e7;strokeColor=#9673a6;" vertex="1" parent="1">
          <mxGeometry x="1050" y="70" width="10" height="10" as="geometry" />
        </mxCell>
        <mxCell id="PHt269yvZsNhhaukJ3Xv-1194" value="" style="rounded=0;whiteSpace=wrap;html=1;fillColor=#e1d5e7;strokeColor=#9673a6;" vertex="1" parent="1">
          <mxGeometry x="1060" y="70" width="10" height="10" as="geometry" />
        </mxCell>
        <mxCell id="PHt269yvZsNhhaukJ3Xv-1195" value="" style="rounded=0;whiteSpace=wrap;html=1;fillColor=#e1d5e7;strokeColor=#9673a6;" vertex="1" parent="1">
          <mxGeometry x="1070" y="70" width="10" height="10" as="geometry" />
        </mxCell>
        <mxCell id="PHt269yvZsNhhaukJ3Xv-1196" value="" style="rounded=0;whiteSpace=wrap;html=1;fillColor=#e1d5e7;strokeColor=#9673a6;" vertex="1" parent="1">
          <mxGeometry x="1000" y="-240" width="10" height="10" as="geometry" />
        </mxCell>
        <mxCell id="PHt269yvZsNhhaukJ3Xv-1197" value="" style="rounded=0;whiteSpace=wrap;html=1;fillColor=#e1d5e7;strokeColor=#9673a6;" vertex="1" parent="1">
          <mxGeometry x="1010" y="-240" width="10" height="10" as="geometry" />
        </mxCell>
        <mxCell id="PHt269yvZsNhhaukJ3Xv-1198" value="" style="rounded=0;whiteSpace=wrap;html=1;fillColor=#e1d5e7;strokeColor=#9673a6;" vertex="1" parent="1">
          <mxGeometry x="1020" y="-240" width="10" height="10" as="geometry" />
        </mxCell>
        <mxCell id="PHt269yvZsNhhaukJ3Xv-1199" value="" style="rounded=0;whiteSpace=wrap;html=1;fillColor=#e1d5e7;strokeColor=#9673a6;" vertex="1" parent="1">
          <mxGeometry x="1030" y="-240" width="10" height="10" as="geometry" />
        </mxCell>
        <mxCell id="PHt269yvZsNhhaukJ3Xv-1200" value="" style="rounded=0;whiteSpace=wrap;html=1;fillColor=#e1d5e7;strokeColor=#9673a6;" vertex="1" parent="1">
          <mxGeometry x="1040" y="-240" width="10" height="10" as="geometry" />
        </mxCell>
        <mxCell id="PHt269yvZsNhhaukJ3Xv-1201" value="" style="rounded=0;whiteSpace=wrap;html=1;fillColor=#e1d5e7;strokeColor=#9673a6;" vertex="1" parent="1">
          <mxGeometry x="1050" y="-240" width="10" height="10" as="geometry" />
        </mxCell>
        <mxCell id="PHt269yvZsNhhaukJ3Xv-1202" value="" style="rounded=0;whiteSpace=wrap;html=1;fillColor=#e1d5e7;strokeColor=#9673a6;" vertex="1" parent="1">
          <mxGeometry x="1060" y="-240" width="10" height="10" as="geometry" />
        </mxCell>
        <mxCell id="PHt269yvZsNhhaukJ3Xv-1203" value="" style="rounded=0;whiteSpace=wrap;html=1;fillColor=#e1d5e7;strokeColor=#9673a6;" vertex="1" parent="1">
          <mxGeometry x="1070" y="-240" width="10" height="10" as="geometry" />
        </mxCell>
        <mxCell id="PHt269yvZsNhhaukJ3Xv-1204" value="" style="rounded=0;whiteSpace=wrap;html=1;fillColor=#e1d5e7;strokeColor=#9673a6;" vertex="1" parent="1">
          <mxGeometry x="1000" y="-230" width="10" height="10" as="geometry" />
        </mxCell>
        <mxCell id="PHt269yvZsNhhaukJ3Xv-1205" value="" style="rounded=0;whiteSpace=wrap;html=1;fillColor=#e1d5e7;strokeColor=#9673a6;" vertex="1" parent="1">
          <mxGeometry x="1010" y="-230" width="10" height="10" as="geometry" />
        </mxCell>
        <mxCell id="PHt269yvZsNhhaukJ3Xv-1206" value="" style="rounded=0;whiteSpace=wrap;html=1;fillColor=#e1d5e7;strokeColor=#9673a6;" vertex="1" parent="1">
          <mxGeometry x="1020" y="-230" width="10" height="10" as="geometry" />
        </mxCell>
        <mxCell id="PHt269yvZsNhhaukJ3Xv-1207" value="" style="rounded=0;whiteSpace=wrap;html=1;fillColor=#e1d5e7;strokeColor=#9673a6;" vertex="1" parent="1">
          <mxGeometry x="1030" y="-230" width="10" height="10" as="geometry" />
        </mxCell>
        <mxCell id="PHt269yvZsNhhaukJ3Xv-1208" value="" style="rounded=0;whiteSpace=wrap;html=1;fillColor=#e1d5e7;strokeColor=#9673a6;" vertex="1" parent="1">
          <mxGeometry x="1040" y="-230" width="10" height="10" as="geometry" />
        </mxCell>
        <mxCell id="PHt269yvZsNhhaukJ3Xv-1209" value="" style="rounded=0;whiteSpace=wrap;html=1;fillColor=#e1d5e7;strokeColor=#9673a6;" vertex="1" parent="1">
          <mxGeometry x="1050" y="-230" width="10" height="10" as="geometry" />
        </mxCell>
        <mxCell id="PHt269yvZsNhhaukJ3Xv-1210" value="" style="rounded=0;whiteSpace=wrap;html=1;fillColor=#e1d5e7;strokeColor=#9673a6;" vertex="1" parent="1">
          <mxGeometry x="1060" y="-230" width="10" height="10" as="geometry" />
        </mxCell>
        <mxCell id="PHt269yvZsNhhaukJ3Xv-1211" value="" style="rounded=0;whiteSpace=wrap;html=1;fillColor=#e1d5e7;strokeColor=#9673a6;" vertex="1" parent="1">
          <mxGeometry x="1070" y="-230" width="10" height="10" as="geometry" />
        </mxCell>
        <mxCell id="PHt269yvZsNhhaukJ3Xv-1212" value="" style="rounded=0;whiteSpace=wrap;html=1;fillColor=#e1d5e7;strokeColor=#9673a6;" vertex="1" parent="1">
          <mxGeometry x="1000" y="-220" width="10" height="10" as="geometry" />
        </mxCell>
        <mxCell id="PHt269yvZsNhhaukJ3Xv-1213" value="" style="rounded=0;whiteSpace=wrap;html=1;fillColor=#e1d5e7;strokeColor=#9673a6;" vertex="1" parent="1">
          <mxGeometry x="1010" y="-220" width="10" height="10" as="geometry" />
        </mxCell>
        <mxCell id="PHt269yvZsNhhaukJ3Xv-1214" value="" style="rounded=0;whiteSpace=wrap;html=1;fillColor=#e1d5e7;strokeColor=#9673a6;" vertex="1" parent="1">
          <mxGeometry x="1020" y="-220" width="10" height="10" as="geometry" />
        </mxCell>
        <mxCell id="PHt269yvZsNhhaukJ3Xv-1215" value="" style="rounded=0;whiteSpace=wrap;html=1;fillColor=#e1d5e7;strokeColor=#9673a6;" vertex="1" parent="1">
          <mxGeometry x="1030" y="-220" width="10" height="10" as="geometry" />
        </mxCell>
        <mxCell id="PHt269yvZsNhhaukJ3Xv-1216" value="" style="rounded=0;whiteSpace=wrap;html=1;fillColor=#e1d5e7;strokeColor=#9673a6;" vertex="1" parent="1">
          <mxGeometry x="1040" y="-220" width="10" height="10" as="geometry" />
        </mxCell>
        <mxCell id="PHt269yvZsNhhaukJ3Xv-1217" value="" style="rounded=0;whiteSpace=wrap;html=1;fillColor=#e1d5e7;strokeColor=#9673a6;" vertex="1" parent="1">
          <mxGeometry x="1050" y="-220" width="10" height="10" as="geometry" />
        </mxCell>
        <mxCell id="PHt269yvZsNhhaukJ3Xv-1218" value="" style="rounded=0;whiteSpace=wrap;html=1;fillColor=#e1d5e7;strokeColor=#9673a6;" vertex="1" parent="1">
          <mxGeometry x="1060" y="-220" width="10" height="10" as="geometry" />
        </mxCell>
        <mxCell id="PHt269yvZsNhhaukJ3Xv-1219" value="" style="rounded=0;whiteSpace=wrap;html=1;fillColor=#e1d5e7;strokeColor=#9673a6;" vertex="1" parent="1">
          <mxGeometry x="1070" y="-220" width="10" height="10" as="geometry" />
        </mxCell>
        <mxCell id="PHt269yvZsNhhaukJ3Xv-1220" value="" style="rounded=0;whiteSpace=wrap;html=1;fillColor=#e1d5e7;strokeColor=#9673a6;" vertex="1" parent="1">
          <mxGeometry x="1000" y="-210" width="10" height="10" as="geometry" />
        </mxCell>
        <mxCell id="PHt269yvZsNhhaukJ3Xv-1221" value="" style="rounded=0;whiteSpace=wrap;html=1;fillColor=#e1d5e7;strokeColor=#9673a6;" vertex="1" parent="1">
          <mxGeometry x="1010" y="-210" width="10" height="10" as="geometry" />
        </mxCell>
        <mxCell id="PHt269yvZsNhhaukJ3Xv-1222" value="" style="rounded=0;whiteSpace=wrap;html=1;fillColor=#e1d5e7;strokeColor=#9673a6;" vertex="1" parent="1">
          <mxGeometry x="1020" y="-210" width="10" height="10" as="geometry" />
        </mxCell>
        <mxCell id="PHt269yvZsNhhaukJ3Xv-1223" value="" style="rounded=0;whiteSpace=wrap;html=1;fillColor=#e1d5e7;strokeColor=#9673a6;" vertex="1" parent="1">
          <mxGeometry x="1030" y="-210" width="10" height="10" as="geometry" />
        </mxCell>
        <mxCell id="PHt269yvZsNhhaukJ3Xv-1224" value="" style="rounded=0;whiteSpace=wrap;html=1;fillColor=#e1d5e7;strokeColor=#9673a6;" vertex="1" parent="1">
          <mxGeometry x="1040" y="-210" width="10" height="10" as="geometry" />
        </mxCell>
        <mxCell id="PHt269yvZsNhhaukJ3Xv-1225" value="" style="rounded=0;whiteSpace=wrap;html=1;fillColor=#e1d5e7;strokeColor=#9673a6;" vertex="1" parent="1">
          <mxGeometry x="1050" y="-210" width="10" height="10" as="geometry" />
        </mxCell>
        <mxCell id="PHt269yvZsNhhaukJ3Xv-1226" value="" style="rounded=0;whiteSpace=wrap;html=1;fillColor=#e1d5e7;strokeColor=#9673a6;" vertex="1" parent="1">
          <mxGeometry x="1060" y="-210" width="10" height="10" as="geometry" />
        </mxCell>
        <mxCell id="PHt269yvZsNhhaukJ3Xv-1227" value="" style="rounded=0;whiteSpace=wrap;html=1;fillColor=#e1d5e7;strokeColor=#9673a6;" vertex="1" parent="1">
          <mxGeometry x="1070" y="-210" width="10" height="10" as="geometry" />
        </mxCell>
        <mxCell id="PHt269yvZsNhhaukJ3Xv-1228" value="" style="rounded=0;whiteSpace=wrap;html=1;fillColor=#e1d5e7;strokeColor=#9673a6;" vertex="1" parent="1">
          <mxGeometry x="1000" y="-200" width="10" height="10" as="geometry" />
        </mxCell>
        <mxCell id="PHt269yvZsNhhaukJ3Xv-1229" value="" style="rounded=0;whiteSpace=wrap;html=1;fillColor=#e1d5e7;strokeColor=#9673a6;" vertex="1" parent="1">
          <mxGeometry x="1010" y="-200" width="10" height="10" as="geometry" />
        </mxCell>
        <mxCell id="PHt269yvZsNhhaukJ3Xv-1230" value="" style="rounded=0;whiteSpace=wrap;html=1;fillColor=#e1d5e7;strokeColor=#9673a6;" vertex="1" parent="1">
          <mxGeometry x="1020" y="-200" width="10" height="10" as="geometry" />
        </mxCell>
        <mxCell id="PHt269yvZsNhhaukJ3Xv-1231" value="" style="rounded=0;whiteSpace=wrap;html=1;fillColor=#e1d5e7;strokeColor=#9673a6;" vertex="1" parent="1">
          <mxGeometry x="1030" y="-200" width="10" height="10" as="geometry" />
        </mxCell>
        <mxCell id="PHt269yvZsNhhaukJ3Xv-1232" value="" style="rounded=0;whiteSpace=wrap;html=1;fillColor=#e1d5e7;strokeColor=#9673a6;" vertex="1" parent="1">
          <mxGeometry x="1040" y="-200" width="10" height="10" as="geometry" />
        </mxCell>
        <mxCell id="PHt269yvZsNhhaukJ3Xv-1233" value="" style="rounded=0;whiteSpace=wrap;html=1;fillColor=#e1d5e7;strokeColor=#9673a6;" vertex="1" parent="1">
          <mxGeometry x="1050" y="-200" width="10" height="10" as="geometry" />
        </mxCell>
        <mxCell id="PHt269yvZsNhhaukJ3Xv-1234" value="" style="rounded=0;whiteSpace=wrap;html=1;fillColor=#e1d5e7;strokeColor=#9673a6;" vertex="1" parent="1">
          <mxGeometry x="1060" y="-200" width="10" height="10" as="geometry" />
        </mxCell>
        <mxCell id="PHt269yvZsNhhaukJ3Xv-1235" value="" style="rounded=0;whiteSpace=wrap;html=1;fillColor=#e1d5e7;strokeColor=#9673a6;" vertex="1" parent="1">
          <mxGeometry x="1070" y="-200" width="10" height="10" as="geometry" />
        </mxCell>
        <mxCell id="PHt269yvZsNhhaukJ3Xv-1236" value="" style="rounded=0;whiteSpace=wrap;html=1;fillColor=#e1d5e7;strokeColor=#9673a6;" vertex="1" parent="1">
          <mxGeometry x="1000" y="-190" width="10" height="10" as="geometry" />
        </mxCell>
        <mxCell id="PHt269yvZsNhhaukJ3Xv-1237" value="" style="rounded=0;whiteSpace=wrap;html=1;fillColor=#e1d5e7;strokeColor=#9673a6;" vertex="1" parent="1">
          <mxGeometry x="1010" y="-190" width="10" height="10" as="geometry" />
        </mxCell>
        <mxCell id="PHt269yvZsNhhaukJ3Xv-1238" value="" style="rounded=0;whiteSpace=wrap;html=1;fillColor=#e1d5e7;strokeColor=#9673a6;" vertex="1" parent="1">
          <mxGeometry x="1020" y="-190" width="10" height="10" as="geometry" />
        </mxCell>
        <mxCell id="PHt269yvZsNhhaukJ3Xv-1239" value="" style="rounded=0;whiteSpace=wrap;html=1;fillColor=#e1d5e7;strokeColor=#9673a6;" vertex="1" parent="1">
          <mxGeometry x="1030" y="-190" width="10" height="10" as="geometry" />
        </mxCell>
        <mxCell id="PHt269yvZsNhhaukJ3Xv-1240" value="" style="rounded=0;whiteSpace=wrap;html=1;fillColor=#e1d5e7;strokeColor=#9673a6;" vertex="1" parent="1">
          <mxGeometry x="1040" y="-190" width="10" height="10" as="geometry" />
        </mxCell>
        <mxCell id="PHt269yvZsNhhaukJ3Xv-1241" value="" style="rounded=0;whiteSpace=wrap;html=1;fillColor=#e1d5e7;strokeColor=#9673a6;" vertex="1" parent="1">
          <mxGeometry x="1050" y="-190" width="10" height="10" as="geometry" />
        </mxCell>
        <mxCell id="PHt269yvZsNhhaukJ3Xv-1242" value="" style="rounded=0;whiteSpace=wrap;html=1;fillColor=#e1d5e7;strokeColor=#9673a6;" vertex="1" parent="1">
          <mxGeometry x="1060" y="-190" width="10" height="10" as="geometry" />
        </mxCell>
        <mxCell id="PHt269yvZsNhhaukJ3Xv-1243" value="" style="rounded=0;whiteSpace=wrap;html=1;fillColor=#e1d5e7;strokeColor=#9673a6;" vertex="1" parent="1">
          <mxGeometry x="1070" y="-190" width="10" height="10" as="geometry" />
        </mxCell>
        <mxCell id="PHt269yvZsNhhaukJ3Xv-1244" value="" style="rounded=0;whiteSpace=wrap;html=1;fillColor=#e1d5e7;strokeColor=#9673a6;" vertex="1" parent="1">
          <mxGeometry x="1000" y="-180" width="10" height="10" as="geometry" />
        </mxCell>
        <mxCell id="PHt269yvZsNhhaukJ3Xv-1245" value="" style="rounded=0;whiteSpace=wrap;html=1;fillColor=#e1d5e7;strokeColor=#9673a6;" vertex="1" parent="1">
          <mxGeometry x="1010" y="-180" width="10" height="10" as="geometry" />
        </mxCell>
        <mxCell id="PHt269yvZsNhhaukJ3Xv-1246" value="" style="rounded=0;whiteSpace=wrap;html=1;fillColor=#e1d5e7;strokeColor=#9673a6;" vertex="1" parent="1">
          <mxGeometry x="1020" y="-180" width="10" height="10" as="geometry" />
        </mxCell>
        <mxCell id="PHt269yvZsNhhaukJ3Xv-1247" value="" style="rounded=0;whiteSpace=wrap;html=1;fillColor=#e1d5e7;strokeColor=#9673a6;" vertex="1" parent="1">
          <mxGeometry x="1030" y="-180" width="10" height="10" as="geometry" />
        </mxCell>
        <mxCell id="PHt269yvZsNhhaukJ3Xv-1248" value="" style="rounded=0;whiteSpace=wrap;html=1;fillColor=#e1d5e7;strokeColor=#9673a6;" vertex="1" parent="1">
          <mxGeometry x="1040" y="-180" width="10" height="10" as="geometry" />
        </mxCell>
        <mxCell id="PHt269yvZsNhhaukJ3Xv-1249" value="" style="rounded=0;whiteSpace=wrap;html=1;fillColor=#e1d5e7;strokeColor=#9673a6;" vertex="1" parent="1">
          <mxGeometry x="1050" y="-180" width="10" height="10" as="geometry" />
        </mxCell>
        <mxCell id="PHt269yvZsNhhaukJ3Xv-1250" value="" style="rounded=0;whiteSpace=wrap;html=1;fillColor=#e1d5e7;strokeColor=#9673a6;" vertex="1" parent="1">
          <mxGeometry x="1060" y="-180" width="10" height="10" as="geometry" />
        </mxCell>
        <mxCell id="PHt269yvZsNhhaukJ3Xv-1251" value="" style="rounded=0;whiteSpace=wrap;html=1;fillColor=#e1d5e7;strokeColor=#9673a6;" vertex="1" parent="1">
          <mxGeometry x="1070" y="-180" width="10" height="10" as="geometry" />
        </mxCell>
        <mxCell id="PHt269yvZsNhhaukJ3Xv-1252" value="" style="rounded=0;whiteSpace=wrap;html=1;fillColor=#e1d5e7;strokeColor=#9673a6;" vertex="1" parent="1">
          <mxGeometry x="1000" y="-170" width="10" height="10" as="geometry" />
        </mxCell>
        <mxCell id="PHt269yvZsNhhaukJ3Xv-1253" value="" style="rounded=0;whiteSpace=wrap;html=1;fillColor=#e1d5e7;strokeColor=#9673a6;" vertex="1" parent="1">
          <mxGeometry x="1010" y="-170" width="10" height="10" as="geometry" />
        </mxCell>
        <mxCell id="PHt269yvZsNhhaukJ3Xv-1254" value="" style="rounded=0;whiteSpace=wrap;html=1;fillColor=#e1d5e7;strokeColor=#9673a6;" vertex="1" parent="1">
          <mxGeometry x="1020" y="-170" width="10" height="10" as="geometry" />
        </mxCell>
        <mxCell id="PHt269yvZsNhhaukJ3Xv-1255" value="" style="rounded=0;whiteSpace=wrap;html=1;fillColor=#e1d5e7;strokeColor=#9673a6;" vertex="1" parent="1">
          <mxGeometry x="1030" y="-170" width="10" height="10" as="geometry" />
        </mxCell>
        <mxCell id="PHt269yvZsNhhaukJ3Xv-1256" value="" style="rounded=0;whiteSpace=wrap;html=1;fillColor=#e1d5e7;strokeColor=#9673a6;" vertex="1" parent="1">
          <mxGeometry x="1040" y="-170" width="10" height="10" as="geometry" />
        </mxCell>
        <mxCell id="PHt269yvZsNhhaukJ3Xv-1257" value="" style="rounded=0;whiteSpace=wrap;html=1;fillColor=#e1d5e7;strokeColor=#9673a6;" vertex="1" parent="1">
          <mxGeometry x="1050" y="-170" width="10" height="10" as="geometry" />
        </mxCell>
        <mxCell id="PHt269yvZsNhhaukJ3Xv-1258" value="" style="rounded=0;whiteSpace=wrap;html=1;fillColor=#e1d5e7;strokeColor=#9673a6;" vertex="1" parent="1">
          <mxGeometry x="1060" y="-170" width="10" height="10" as="geometry" />
        </mxCell>
        <mxCell id="PHt269yvZsNhhaukJ3Xv-1259" value="" style="rounded=0;whiteSpace=wrap;html=1;fillColor=#e1d5e7;strokeColor=#9673a6;" vertex="1" parent="1">
          <mxGeometry x="1070" y="-170" width="10" height="10" as="geometry" />
        </mxCell>
        <mxCell id="PHt269yvZsNhhaukJ3Xv-1260" value="" style="rounded=0;whiteSpace=wrap;html=1;fillColor=#e1d5e7;strokeColor=#9673a6;" vertex="1" parent="1">
          <mxGeometry x="1000" y="-160" width="10" height="10" as="geometry" />
        </mxCell>
        <mxCell id="PHt269yvZsNhhaukJ3Xv-1261" value="" style="rounded=0;whiteSpace=wrap;html=1;fillColor=#e1d5e7;strokeColor=#9673a6;" vertex="1" parent="1">
          <mxGeometry x="1010" y="-160" width="10" height="10" as="geometry" />
        </mxCell>
        <mxCell id="PHt269yvZsNhhaukJ3Xv-1262" value="" style="rounded=0;whiteSpace=wrap;html=1;fillColor=#e1d5e7;strokeColor=#9673a6;" vertex="1" parent="1">
          <mxGeometry x="1020" y="-160" width="10" height="10" as="geometry" />
        </mxCell>
        <mxCell id="PHt269yvZsNhhaukJ3Xv-1263" value="" style="rounded=0;whiteSpace=wrap;html=1;fillColor=#e1d5e7;strokeColor=#9673a6;" vertex="1" parent="1">
          <mxGeometry x="1030" y="-160" width="10" height="10" as="geometry" />
        </mxCell>
        <mxCell id="PHt269yvZsNhhaukJ3Xv-1264" value="" style="rounded=0;whiteSpace=wrap;html=1;fillColor=#e1d5e7;strokeColor=#9673a6;" vertex="1" parent="1">
          <mxGeometry x="1040" y="-160" width="10" height="10" as="geometry" />
        </mxCell>
        <mxCell id="PHt269yvZsNhhaukJ3Xv-1265" value="" style="rounded=0;whiteSpace=wrap;html=1;fillColor=#e1d5e7;strokeColor=#9673a6;" vertex="1" parent="1">
          <mxGeometry x="1050" y="-160" width="10" height="10" as="geometry" />
        </mxCell>
        <mxCell id="PHt269yvZsNhhaukJ3Xv-1266" value="" style="rounded=0;whiteSpace=wrap;html=1;fillColor=#e1d5e7;strokeColor=#9673a6;" vertex="1" parent="1">
          <mxGeometry x="1060" y="-160" width="10" height="10" as="geometry" />
        </mxCell>
        <mxCell id="PHt269yvZsNhhaukJ3Xv-1267" value="" style="rounded=0;whiteSpace=wrap;html=1;fillColor=#e1d5e7;strokeColor=#9673a6;" vertex="1" parent="1">
          <mxGeometry x="1070" y="-160" width="10" height="10" as="geometry" />
        </mxCell>
        <mxCell id="PHt269yvZsNhhaukJ3Xv-1268" value="" style="rounded=0;whiteSpace=wrap;html=1;fillColor=#e1d5e7;strokeColor=#9673a6;" vertex="1" parent="1">
          <mxGeometry x="1000" y="-150" width="10" height="10" as="geometry" />
        </mxCell>
        <mxCell id="PHt269yvZsNhhaukJ3Xv-1269" value="" style="rounded=0;whiteSpace=wrap;html=1;fillColor=#e1d5e7;strokeColor=#9673a6;" vertex="1" parent="1">
          <mxGeometry x="1010" y="-150" width="10" height="10" as="geometry" />
        </mxCell>
        <mxCell id="PHt269yvZsNhhaukJ3Xv-1270" value="" style="rounded=0;whiteSpace=wrap;html=1;fillColor=#e1d5e7;strokeColor=#9673a6;" vertex="1" parent="1">
          <mxGeometry x="1020" y="-150" width="10" height="10" as="geometry" />
        </mxCell>
        <mxCell id="PHt269yvZsNhhaukJ3Xv-1271" value="" style="rounded=0;whiteSpace=wrap;html=1;fillColor=#e1d5e7;strokeColor=#9673a6;" vertex="1" parent="1">
          <mxGeometry x="1030" y="-150" width="10" height="10" as="geometry" />
        </mxCell>
        <mxCell id="PHt269yvZsNhhaukJ3Xv-1272" value="" style="rounded=0;whiteSpace=wrap;html=1;fillColor=#e1d5e7;strokeColor=#9673a6;" vertex="1" parent="1">
          <mxGeometry x="1040" y="-150" width="10" height="10" as="geometry" />
        </mxCell>
        <mxCell id="PHt269yvZsNhhaukJ3Xv-1273" value="" style="rounded=0;whiteSpace=wrap;html=1;fillColor=#e1d5e7;strokeColor=#9673a6;" vertex="1" parent="1">
          <mxGeometry x="1050" y="-150" width="10" height="10" as="geometry" />
        </mxCell>
        <mxCell id="PHt269yvZsNhhaukJ3Xv-1274" value="" style="rounded=0;whiteSpace=wrap;html=1;fillColor=#e1d5e7;strokeColor=#9673a6;" vertex="1" parent="1">
          <mxGeometry x="1060" y="-150" width="10" height="10" as="geometry" />
        </mxCell>
        <mxCell id="PHt269yvZsNhhaukJ3Xv-1275" value="" style="rounded=0;whiteSpace=wrap;html=1;fillColor=#e1d5e7;strokeColor=#9673a6;" vertex="1" parent="1">
          <mxGeometry x="1070" y="-150" width="10" height="10" as="geometry" />
        </mxCell>
        <mxCell id="PHt269yvZsNhhaukJ3Xv-1276" value="" style="rounded=0;whiteSpace=wrap;html=1;fillColor=#e1d5e7;strokeColor=#9673a6;" vertex="1" parent="1">
          <mxGeometry x="1000" y="-140" width="10" height="10" as="geometry" />
        </mxCell>
        <mxCell id="PHt269yvZsNhhaukJ3Xv-1277" value="" style="rounded=0;whiteSpace=wrap;html=1;fillColor=#e1d5e7;strokeColor=#9673a6;" vertex="1" parent="1">
          <mxGeometry x="1010" y="-140" width="10" height="10" as="geometry" />
        </mxCell>
        <mxCell id="PHt269yvZsNhhaukJ3Xv-1278" value="" style="rounded=0;whiteSpace=wrap;html=1;fillColor=#e1d5e7;strokeColor=#9673a6;" vertex="1" parent="1">
          <mxGeometry x="1020" y="-140" width="10" height="10" as="geometry" />
        </mxCell>
        <mxCell id="PHt269yvZsNhhaukJ3Xv-1279" value="" style="rounded=0;whiteSpace=wrap;html=1;fillColor=#e1d5e7;strokeColor=#9673a6;" vertex="1" parent="1">
          <mxGeometry x="1030" y="-140" width="10" height="10" as="geometry" />
        </mxCell>
        <mxCell id="PHt269yvZsNhhaukJ3Xv-1280" value="" style="rounded=0;whiteSpace=wrap;html=1;fillColor=#e1d5e7;strokeColor=#9673a6;" vertex="1" parent="1">
          <mxGeometry x="1040" y="-140" width="10" height="10" as="geometry" />
        </mxCell>
        <mxCell id="PHt269yvZsNhhaukJ3Xv-1281" value="" style="rounded=0;whiteSpace=wrap;html=1;fillColor=#e1d5e7;strokeColor=#9673a6;" vertex="1" parent="1">
          <mxGeometry x="1050" y="-140" width="10" height="10" as="geometry" />
        </mxCell>
        <mxCell id="PHt269yvZsNhhaukJ3Xv-1282" value="" style="rounded=0;whiteSpace=wrap;html=1;fillColor=#e1d5e7;strokeColor=#9673a6;" vertex="1" parent="1">
          <mxGeometry x="1060" y="-140" width="10" height="10" as="geometry" />
        </mxCell>
        <mxCell id="PHt269yvZsNhhaukJ3Xv-1283" value="" style="rounded=0;whiteSpace=wrap;html=1;fillColor=#e1d5e7;strokeColor=#9673a6;" vertex="1" parent="1">
          <mxGeometry x="1070" y="-140" width="10" height="10" as="geometry" />
        </mxCell>
        <mxCell id="PHt269yvZsNhhaukJ3Xv-1284" value="" style="rounded=0;whiteSpace=wrap;html=1;fillColor=#e1d5e7;strokeColor=#9673a6;" vertex="1" parent="1">
          <mxGeometry x="1000" y="-130" width="10" height="10" as="geometry" />
        </mxCell>
        <mxCell id="PHt269yvZsNhhaukJ3Xv-1285" value="" style="rounded=0;whiteSpace=wrap;html=1;fillColor=#e1d5e7;strokeColor=#9673a6;" vertex="1" parent="1">
          <mxGeometry x="1010" y="-130" width="10" height="10" as="geometry" />
        </mxCell>
        <mxCell id="PHt269yvZsNhhaukJ3Xv-1286" value="" style="rounded=0;whiteSpace=wrap;html=1;fillColor=#e1d5e7;strokeColor=#9673a6;" vertex="1" parent="1">
          <mxGeometry x="1020" y="-130" width="10" height="10" as="geometry" />
        </mxCell>
        <mxCell id="PHt269yvZsNhhaukJ3Xv-1287" value="" style="rounded=0;whiteSpace=wrap;html=1;fillColor=#e1d5e7;strokeColor=#9673a6;" vertex="1" parent="1">
          <mxGeometry x="1030" y="-130" width="10" height="10" as="geometry" />
        </mxCell>
        <mxCell id="PHt269yvZsNhhaukJ3Xv-1288" value="" style="rounded=0;whiteSpace=wrap;html=1;fillColor=#e1d5e7;strokeColor=#9673a6;" vertex="1" parent="1">
          <mxGeometry x="1040" y="-130" width="10" height="10" as="geometry" />
        </mxCell>
        <mxCell id="PHt269yvZsNhhaukJ3Xv-1289" value="" style="rounded=0;whiteSpace=wrap;html=1;fillColor=#e1d5e7;strokeColor=#9673a6;" vertex="1" parent="1">
          <mxGeometry x="1050" y="-130" width="10" height="10" as="geometry" />
        </mxCell>
        <mxCell id="PHt269yvZsNhhaukJ3Xv-1290" value="" style="rounded=0;whiteSpace=wrap;html=1;fillColor=#e1d5e7;strokeColor=#9673a6;" vertex="1" parent="1">
          <mxGeometry x="1060" y="-130" width="10" height="10" as="geometry" />
        </mxCell>
        <mxCell id="PHt269yvZsNhhaukJ3Xv-1291" value="" style="rounded=0;whiteSpace=wrap;html=1;fillColor=#e1d5e7;strokeColor=#9673a6;" vertex="1" parent="1">
          <mxGeometry x="1070" y="-130" width="10" height="10" as="geometry" />
        </mxCell>
        <mxCell id="PHt269yvZsNhhaukJ3Xv-1292" value="" style="rounded=0;whiteSpace=wrap;html=1;fillColor=#e1d5e7;strokeColor=#9673a6;" vertex="1" parent="1">
          <mxGeometry x="1000" y="-120" width="10" height="10" as="geometry" />
        </mxCell>
        <mxCell id="PHt269yvZsNhhaukJ3Xv-1293" value="" style="rounded=0;whiteSpace=wrap;html=1;fillColor=#e1d5e7;strokeColor=#9673a6;" vertex="1" parent="1">
          <mxGeometry x="1010" y="-120" width="10" height="10" as="geometry" />
        </mxCell>
        <mxCell id="PHt269yvZsNhhaukJ3Xv-1294" value="" style="rounded=0;whiteSpace=wrap;html=1;fillColor=#e1d5e7;strokeColor=#9673a6;" vertex="1" parent="1">
          <mxGeometry x="1020" y="-120" width="10" height="10" as="geometry" />
        </mxCell>
        <mxCell id="PHt269yvZsNhhaukJ3Xv-1295" value="" style="rounded=0;whiteSpace=wrap;html=1;fillColor=#e1d5e7;strokeColor=#9673a6;" vertex="1" parent="1">
          <mxGeometry x="1030" y="-120" width="10" height="10" as="geometry" />
        </mxCell>
        <mxCell id="PHt269yvZsNhhaukJ3Xv-1296" value="" style="rounded=0;whiteSpace=wrap;html=1;fillColor=#e1d5e7;strokeColor=#9673a6;" vertex="1" parent="1">
          <mxGeometry x="1040" y="-120" width="10" height="10" as="geometry" />
        </mxCell>
        <mxCell id="PHt269yvZsNhhaukJ3Xv-1297" value="" style="rounded=0;whiteSpace=wrap;html=1;fillColor=#e1d5e7;strokeColor=#9673a6;" vertex="1" parent="1">
          <mxGeometry x="1050" y="-120" width="10" height="10" as="geometry" />
        </mxCell>
        <mxCell id="PHt269yvZsNhhaukJ3Xv-1298" value="" style="rounded=0;whiteSpace=wrap;html=1;fillColor=#e1d5e7;strokeColor=#9673a6;" vertex="1" parent="1">
          <mxGeometry x="1060" y="-120" width="10" height="10" as="geometry" />
        </mxCell>
        <mxCell id="PHt269yvZsNhhaukJ3Xv-1299" value="" style="rounded=0;whiteSpace=wrap;html=1;fillColor=#e1d5e7;strokeColor=#9673a6;" vertex="1" parent="1">
          <mxGeometry x="1070" y="-120" width="10" height="10" as="geometry" />
        </mxCell>
        <mxCell id="PHt269yvZsNhhaukJ3Xv-1300" value="" style="rounded=0;whiteSpace=wrap;html=1;fillColor=#e1d5e7;strokeColor=#9673a6;" vertex="1" parent="1">
          <mxGeometry x="1000" y="-110" width="10" height="10" as="geometry" />
        </mxCell>
        <mxCell id="PHt269yvZsNhhaukJ3Xv-1301" value="" style="rounded=0;whiteSpace=wrap;html=1;fillColor=#e1d5e7;strokeColor=#9673a6;" vertex="1" parent="1">
          <mxGeometry x="1010" y="-110" width="10" height="10" as="geometry" />
        </mxCell>
        <mxCell id="PHt269yvZsNhhaukJ3Xv-1302" value="" style="rounded=0;whiteSpace=wrap;html=1;fillColor=#e1d5e7;strokeColor=#9673a6;" vertex="1" parent="1">
          <mxGeometry x="1020" y="-110" width="10" height="10" as="geometry" />
        </mxCell>
        <mxCell id="PHt269yvZsNhhaukJ3Xv-1303" value="" style="rounded=0;whiteSpace=wrap;html=1;fillColor=#e1d5e7;strokeColor=#9673a6;" vertex="1" parent="1">
          <mxGeometry x="1030" y="-110" width="10" height="10" as="geometry" />
        </mxCell>
        <mxCell id="PHt269yvZsNhhaukJ3Xv-1304" value="" style="rounded=0;whiteSpace=wrap;html=1;fillColor=#e1d5e7;strokeColor=#9673a6;" vertex="1" parent="1">
          <mxGeometry x="1040" y="-110" width="10" height="10" as="geometry" />
        </mxCell>
        <mxCell id="PHt269yvZsNhhaukJ3Xv-1305" value="" style="rounded=0;whiteSpace=wrap;html=1;fillColor=#e1d5e7;strokeColor=#9673a6;" vertex="1" parent="1">
          <mxGeometry x="1050" y="-110" width="10" height="10" as="geometry" />
        </mxCell>
        <mxCell id="PHt269yvZsNhhaukJ3Xv-1306" value="" style="rounded=0;whiteSpace=wrap;html=1;fillColor=#e1d5e7;strokeColor=#9673a6;" vertex="1" parent="1">
          <mxGeometry x="1060" y="-110" width="10" height="10" as="geometry" />
        </mxCell>
        <mxCell id="PHt269yvZsNhhaukJ3Xv-1307" value="" style="rounded=0;whiteSpace=wrap;html=1;fillColor=#e1d5e7;strokeColor=#9673a6;" vertex="1" parent="1">
          <mxGeometry x="1070" y="-110" width="10" height="10" as="geometry" />
        </mxCell>
        <mxCell id="PHt269yvZsNhhaukJ3Xv-1308" value="" style="rounded=0;whiteSpace=wrap;html=1;fillColor=#e1d5e7;strokeColor=#9673a6;" vertex="1" parent="1">
          <mxGeometry x="1000" y="-100" width="10" height="10" as="geometry" />
        </mxCell>
        <mxCell id="PHt269yvZsNhhaukJ3Xv-1309" value="" style="rounded=0;whiteSpace=wrap;html=1;fillColor=#e1d5e7;strokeColor=#9673a6;" vertex="1" parent="1">
          <mxGeometry x="1010" y="-100" width="10" height="10" as="geometry" />
        </mxCell>
        <mxCell id="PHt269yvZsNhhaukJ3Xv-1310" value="" style="rounded=0;whiteSpace=wrap;html=1;fillColor=#e1d5e7;strokeColor=#9673a6;" vertex="1" parent="1">
          <mxGeometry x="1020" y="-100" width="10" height="10" as="geometry" />
        </mxCell>
        <mxCell id="PHt269yvZsNhhaukJ3Xv-1311" value="" style="rounded=0;whiteSpace=wrap;html=1;fillColor=#e1d5e7;strokeColor=#9673a6;" vertex="1" parent="1">
          <mxGeometry x="1030" y="-100" width="10" height="10" as="geometry" />
        </mxCell>
        <mxCell id="PHt269yvZsNhhaukJ3Xv-1312" value="" style="rounded=0;whiteSpace=wrap;html=1;fillColor=#e1d5e7;strokeColor=#9673a6;" vertex="1" parent="1">
          <mxGeometry x="1040" y="-100" width="10" height="10" as="geometry" />
        </mxCell>
        <mxCell id="PHt269yvZsNhhaukJ3Xv-1313" value="" style="rounded=0;whiteSpace=wrap;html=1;fillColor=#e1d5e7;strokeColor=#9673a6;" vertex="1" parent="1">
          <mxGeometry x="1050" y="-100" width="10" height="10" as="geometry" />
        </mxCell>
        <mxCell id="PHt269yvZsNhhaukJ3Xv-1314" value="" style="rounded=0;whiteSpace=wrap;html=1;fillColor=#e1d5e7;strokeColor=#9673a6;" vertex="1" parent="1">
          <mxGeometry x="1060" y="-100" width="10" height="10" as="geometry" />
        </mxCell>
        <mxCell id="PHt269yvZsNhhaukJ3Xv-1315" value="" style="rounded=0;whiteSpace=wrap;html=1;fillColor=#e1d5e7;strokeColor=#9673a6;" vertex="1" parent="1">
          <mxGeometry x="1070" y="-100" width="10" height="10" as="geometry" />
        </mxCell>
        <mxCell id="PHt269yvZsNhhaukJ3Xv-1316" value="" style="rounded=0;whiteSpace=wrap;html=1;fillColor=#e1d5e7;strokeColor=#9673a6;" vertex="1" parent="1">
          <mxGeometry x="1000" y="-90" width="10" height="10" as="geometry" />
        </mxCell>
        <mxCell id="PHt269yvZsNhhaukJ3Xv-1317" value="" style="rounded=0;whiteSpace=wrap;html=1;fillColor=#e1d5e7;strokeColor=#9673a6;" vertex="1" parent="1">
          <mxGeometry x="1010" y="-90" width="10" height="10" as="geometry" />
        </mxCell>
        <mxCell id="PHt269yvZsNhhaukJ3Xv-1318" value="" style="rounded=0;whiteSpace=wrap;html=1;fillColor=#e1d5e7;strokeColor=#9673a6;" vertex="1" parent="1">
          <mxGeometry x="1020" y="-90" width="10" height="10" as="geometry" />
        </mxCell>
        <mxCell id="PHt269yvZsNhhaukJ3Xv-1319" value="" style="rounded=0;whiteSpace=wrap;html=1;fillColor=#e1d5e7;strokeColor=#9673a6;" vertex="1" parent="1">
          <mxGeometry x="1030" y="-90" width="10" height="10" as="geometry" />
        </mxCell>
        <mxCell id="PHt269yvZsNhhaukJ3Xv-1320" value="" style="rounded=0;whiteSpace=wrap;html=1;fillColor=#e1d5e7;strokeColor=#9673a6;" vertex="1" parent="1">
          <mxGeometry x="1040" y="-90" width="10" height="10" as="geometry" />
        </mxCell>
        <mxCell id="PHt269yvZsNhhaukJ3Xv-1321" value="" style="rounded=0;whiteSpace=wrap;html=1;fillColor=#e1d5e7;strokeColor=#9673a6;" vertex="1" parent="1">
          <mxGeometry x="1050" y="-90" width="10" height="10" as="geometry" />
        </mxCell>
        <mxCell id="PHt269yvZsNhhaukJ3Xv-1322" value="" style="rounded=0;whiteSpace=wrap;html=1;fillColor=#e1d5e7;strokeColor=#9673a6;" vertex="1" parent="1">
          <mxGeometry x="1060" y="-90" width="10" height="10" as="geometry" />
        </mxCell>
        <mxCell id="PHt269yvZsNhhaukJ3Xv-1323" value="" style="rounded=0;whiteSpace=wrap;html=1;fillColor=#e1d5e7;strokeColor=#9673a6;" vertex="1" parent="1">
          <mxGeometry x="1070" y="-90" width="10" height="10" as="geometry" />
        </mxCell>
        <mxCell id="PHt269yvZsNhhaukJ3Xv-1324" value="&lt;font style=&quot;font-size: 24px;&quot;&gt;8x8&lt;/font&gt;" style="rounded=0;whiteSpace=wrap;html=1;fillColor=#d5e8d4;strokeColor=#82b366;" vertex="1" parent="1">
          <mxGeometry x="1000" y="200" width="80" height="80" as="geometry" />
        </mxCell>
        <mxCell id="PHt269yvZsNhhaukJ3Xv-1325" value="&lt;font style=&quot;font-size: 24px;&quot;&gt;8x8&lt;/font&gt;" style="rounded=0;whiteSpace=wrap;html=1;fillColor=#d5e8d4;strokeColor=#82b366;" vertex="1" parent="1">
          <mxGeometry x="1000" y="280" width="80" height="80" as="geometry" />
        </mxCell>
        <mxCell id="PHt269yvZsNhhaukJ3Xv-1326" value="&lt;font style=&quot;font-size: 24px;&quot;&gt;8x8&lt;/font&gt;" style="rounded=0;whiteSpace=wrap;html=1;fillColor=#d5e8d4;strokeColor=#82b366;" vertex="1" parent="1">
          <mxGeometry x="1000" y="360" width="80" height="80" as="geometry" />
        </mxCell>
        <mxCell id="PHt269yvZsNhhaukJ3Xv-1327" value="&lt;font style=&quot;font-size: 24px;&quot;&gt;16x16&lt;/font&gt;" style="rounded=0;whiteSpace=wrap;html=1;fillColor=#dae8fc;strokeColor=#6c8ebf;" vertex="1" parent="1">
          <mxGeometry x="520" y="-80" width="160" height="160" as="geometry" />
        </mxCell>
        <mxCell id="PHt269yvZsNhhaukJ3Xv-1328" value="&lt;font style=&quot;font-size: 24px;&quot;&gt;16x16&lt;/font&gt;" style="rounded=0;whiteSpace=wrap;html=1;fillColor=#dae8fc;strokeColor=#6c8ebf;" vertex="1" parent="1">
          <mxGeometry x="520" y="-240" width="160" height="160" as="geometry" />
        </mxCell>
        <mxCell id="PHt269yvZsNhhaukJ3Xv-1329" value="&lt;font style=&quot;font-size: 24px;&quot;&gt;16x16&lt;/font&gt;" style="rounded=0;whiteSpace=wrap;html=1;fillColor=#dae8fc;strokeColor=#6c8ebf;" vertex="1" parent="1">
          <mxGeometry x="680" y="-80" width="160" height="160" as="geometry" />
        </mxCell>
        <mxCell id="PHt269yvZsNhhaukJ3Xv-1330" value="&lt;font style=&quot;font-size: 24px;&quot;&gt;16x16&lt;/font&gt;" style="rounded=0;whiteSpace=wrap;html=1;fillColor=#dae8fc;strokeColor=#6c8ebf;" vertex="1" parent="1">
          <mxGeometry x="680" y="-240" width="160" height="160" as="geometry" />
        </mxCell>
        <mxCell id="PHt269yvZsNhhaukJ3Xv-1331" value="&lt;font style=&quot;font-size: 24px;&quot;&gt;16x16&lt;/font&gt;" style="rounded=0;whiteSpace=wrap;html=1;fillColor=#dae8fc;strokeColor=#6c8ebf;" vertex="1" parent="1">
          <mxGeometry x="840" y="-80" width="160" height="160" as="geometry" />
        </mxCell>
        <mxCell id="PHt269yvZsNhhaukJ3Xv-1332" value="&lt;font style=&quot;font-size: 24px;&quot;&gt;16x16&lt;/font&gt;" style="rounded=0;whiteSpace=wrap;html=1;fillColor=#dae8fc;strokeColor=#6c8ebf;" vertex="1" parent="1">
          <mxGeometry x="840" y="-240" width="160" height="160" as="geometry" />
        </mxCell>
        <mxCell id="PHt269yvZsNhhaukJ3Xv-1333" value="" style="endArrow=none;dashed=1;html=1;rounded=0;exitX=0.75;exitY=0;exitDx=0;exitDy=0;entryX=0;entryY=0;entryDx=0;entryDy=0;" edge="1" parent="1" source="PHt269yvZsNhhaukJ3Xv-1062" target="PHt269yvZsNhhaukJ3Xv-1328">
          <mxGeometry width="50" height="50" relative="1" as="geometry">
            <mxPoint x="380" y="110" as="sourcePoint" />
            <mxPoint x="430" y="60" as="targetPoint" />
          </mxGeometry>
        </mxCell>
        <mxCell id="PHt269yvZsNhhaukJ3Xv-1334" value="" style="endArrow=none;dashed=1;html=1;rounded=0;entryX=0;entryY=1;entryDx=0;entryDy=0;" edge="1" parent="1" target="PHt269yvZsNhhaukJ3Xv-1064">
          <mxGeometry width="50" height="50" relative="1" as="geometry">
            <mxPoint x="240" y="280" as="sourcePoint" />
            <mxPoint x="350" y="240" as="targetPoint" />
          </mxGeometry>
        </mxCell>
        <mxCell id="PHt269yvZsNhhaukJ3Xv-1335" value="" style="endArrow=none;dashed=1;html=1;rounded=0;exitX=0.75;exitY=0;exitDx=0;exitDy=0;entryX=0;entryY=0;entryDx=0;entryDy=0;" edge="1" parent="1" source="PHt269yvZsNhhaukJ3Xv-1062" target="PHt269yvZsNhhaukJ3Xv-1064">
          <mxGeometry width="50" height="50" relative="1" as="geometry">
            <mxPoint x="260" y="255" as="sourcePoint" />
            <mxPoint x="540" y="-105" as="targetPoint" />
          </mxGeometry>
        </mxCell>
        <mxCell id="PHt269yvZsNhhaukJ3Xv-1336" value="" style="endArrow=none;dashed=1;html=1;rounded=0;entryX=0;entryY=1;entryDx=0;entryDy=0;" edge="1" parent="1" target="PHt269yvZsNhhaukJ3Xv-1327">
          <mxGeometry width="50" height="50" relative="1" as="geometry">
            <mxPoint x="240" y="280" as="sourcePoint" />
            <mxPoint x="540" y="350" as="targetPoint" />
          </mxGeometry>
        </mxCell>
      </root>
    </mxGraphModel>
  </diagram>
</mxfile>
